<svg width="190" height="100" viewBox="0 0 190 100" fill="none" xmlns="http://www.w3.org/2000/svg">
<rect width="190" height="100" rx="15" fill="#CFDDDB"/>
<path d="M24.0043 33H20.6037L27.1939 19.9091H31.4062L33.6499 33H30.2493L28.8111 23.2074H28.7088L24.0043 33ZM24.4134 27.848H31.5213L31.1122 30.2514H24.0043L24.4134 27.848ZM40.3583 19.9091L38.185 33H35.0593L37.2326 19.9091H40.3583ZM42.0091 33L41.0886 23.1818H44.2271L44.502 29.4716H44.5851L47.0524 23.1818H50.1142L50.5233 29.4268H50.6064L52.9395 23.1818H56.0779L51.8784 33H48.5353L47.9473 27.2791H47.8386L45.3585 33H42.0091ZM58.4382 33.1662C57.8161 33.1662 57.2791 33.0618 56.8274 32.853C56.38 32.6399 56.0518 32.3182 55.843 31.8878C55.6385 31.4574 55.5895 30.9205 55.696 30.277C55.7898 29.7315 55.9624 29.2734 56.2138 28.9027C56.4695 28.5277 56.7827 28.223 57.1534 27.9886C57.5284 27.7543 57.946 27.5753 58.4062 27.4517C58.8665 27.3281 59.348 27.245 59.8509 27.2024C60.4134 27.1513 60.8693 27.0959 61.2188 27.0362C61.5724 26.9766 61.8366 26.8935 62.0114 26.7869C62.1861 26.6761 62.2926 26.5227 62.331 26.3267V26.2947C62.3821 25.9666 62.3118 25.7131 62.12 25.5341C61.9283 25.3551 61.6406 25.2656 61.2571 25.2656C60.848 25.2656 60.4986 25.3551 60.2088 25.5341C59.919 25.7131 59.7166 25.9602 59.6016 26.2756L56.7379 26.1733C56.9169 25.5767 57.2237 25.044 57.6584 24.5753C58.093 24.1023 58.6449 23.7315 59.3139 23.4631C59.9872 23.1903 60.7649 23.054 61.647 23.054C62.2692 23.054 62.8317 23.1286 63.3345 23.2777C63.8374 23.4226 64.2614 23.6357 64.6065 23.9169C64.956 24.1939 65.2053 24.5348 65.3544 24.9396C65.5036 25.3445 65.5355 25.8068 65.4503 26.3267L64.3317 33H61.3913L61.6214 31.6321H61.5447C61.3146 31.9645 61.044 32.2457 60.733 32.4759C60.4261 32.706 60.081 32.8786 59.6974 32.9936C59.3139 33.1087 58.8942 33.1662 58.4382 33.1662ZM59.755 31.1207C60.0831 31.1207 60.3942 31.0526 60.6882 30.9162C60.9822 30.7798 61.2294 30.5923 61.4297 30.3537C61.6342 30.1108 61.7642 29.8295 61.8196 29.5099L61.9666 28.5767C61.8771 28.6236 61.7642 28.6662 61.6278 28.7045C61.4915 28.7429 61.3466 28.7791 61.1932 28.8132C61.0398 28.843 60.8821 28.8729 60.7202 28.9027C60.5625 28.9283 60.4112 28.9517 60.2663 28.973C59.9595 29.0199 59.6932 29.0923 59.4673 29.1903C59.2415 29.2884 59.0604 29.4162 58.924 29.5739C58.7919 29.7273 58.7109 29.9105 58.6811 30.1236C58.63 30.4432 58.7045 30.6903 58.9048 30.8651C59.1051 31.0355 59.3885 31.1207 59.755 31.1207ZM67.2017 36.6818C66.8267 36.6818 66.4773 36.652 66.1534 36.5923C65.8338 36.5369 65.5611 36.4624 65.3352 36.3686L66.4091 34.0994C66.6946 34.2017 66.9567 34.2592 67.1953 34.272C67.4382 34.2891 67.6555 34.2486 67.8473 34.1506C68.0433 34.0568 68.2138 33.8885 68.3587 33.6456L68.5376 33.3452L66.7415 23.1818H69.8991L70.5384 30.1939H70.6406L73.6449 23.1818H77.0518L71.5739 33.9396C71.2969 34.4766 70.9624 34.9517 70.5703 35.3651C70.1783 35.7784 69.7053 36.1001 69.1513 36.3303C68.6016 36.5646 67.9517 36.6818 67.2017 36.6818ZM86.2979 26.1797L83.479 26.2564C83.4833 26.0476 83.4364 25.8643 83.3384 25.7067C83.2404 25.5447 83.1019 25.419 82.9229 25.3295C82.744 25.2401 82.5309 25.1953 82.2837 25.1953C81.8832 25.1953 81.5231 25.2848 81.2035 25.4638C80.8881 25.6428 80.7113 25.875 80.6729 26.1605C80.6431 26.3139 80.6857 26.4482 80.8008 26.5632C80.9158 26.674 81.1715 26.772 81.5678 26.8572L83.4087 27.2152C84.3548 27.4027 85.0408 27.7287 85.467 28.1932C85.8974 28.6534 86.0508 29.2628 85.9272 30.0213C85.8164 30.669 85.5309 31.2294 85.0707 31.7024C84.6147 32.1754 84.033 32.5419 83.3256 32.8018C82.6225 33.0575 81.8448 33.1854 80.9925 33.1854C79.5522 33.1854 78.4656 32.8956 77.7326 32.3161C77.0039 31.7322 76.663 30.9588 76.7099 29.9957L79.7525 29.919C79.7653 30.2812 79.8867 30.554 80.1168 30.7372C80.3512 30.9162 80.6687 31.0099 81.0692 31.0185C81.5082 31.027 81.8874 30.9354 82.207 30.7436C82.5266 30.5518 82.7056 30.3153 82.744 30.0341C82.7695 29.8509 82.7077 29.7081 82.5586 29.6058C82.4137 29.5036 82.1431 29.4119 81.7468 29.331L80.0849 29.005C79.1303 28.8217 78.44 28.4766 78.0138 27.9695C77.592 27.4581 77.4471 26.8061 77.5792 26.0135C77.69 25.3828 77.9499 24.848 78.359 24.4091C78.7724 23.9659 79.3114 23.6293 79.9762 23.3991C80.6452 23.169 81.408 23.054 82.2646 23.054C83.6367 23.054 84.6722 23.3331 85.3711 23.8913C86.0742 24.4453 86.3832 25.2081 86.2979 26.1797ZM94.9128 27.4006L93.9796 33H90.8539L92.4902 23.1818H95.4625L95.1685 24.9844H95.2772C95.584 24.3835 96.0293 23.9126 96.6131 23.5717C97.1969 23.2266 97.8532 23.054 98.5819 23.054C99.2679 23.054 99.8411 23.2074 100.301 23.5142C100.762 23.821 101.088 24.2514 101.279 24.8054C101.471 25.3551 101.503 26.0007 101.375 26.7422L100.327 33H97.2012L98.1408 27.3558C98.2346 26.8146 98.1685 26.3906 97.9426 26.0838C97.7211 25.7727 97.3588 25.6172 96.856 25.6172C96.5279 25.6172 96.2275 25.6896 95.9547 25.8345C95.6863 25.9751 95.4604 26.1776 95.2772 26.4418C95.0982 26.706 94.9767 27.0256 94.9128 27.4006ZM106.82 33.1854C105.784 33.1854 104.93 32.9723 104.256 32.5462C103.587 32.12 103.116 31.5256 102.844 30.7628C102.571 30 102.518 29.1136 102.684 28.1037C102.85 27.098 103.193 26.2159 103.713 25.4574C104.233 24.6989 104.898 24.1087 105.707 23.6868C106.517 23.2649 107.435 23.054 108.462 23.054C109.494 23.054 110.344 23.267 111.013 23.6932C111.686 24.1193 112.159 24.7138 112.432 25.4766C112.709 26.2393 112.764 27.1278 112.598 28.142C112.432 29.1477 112.087 30.0298 111.562 30.7884C111.038 31.5426 110.374 32.1307 109.568 32.5526C108.763 32.9744 107.847 33.1854 106.82 33.1854ZM107.171 30.8267C107.555 30.8267 107.898 30.7116 108.2 30.4815C108.507 30.2514 108.765 29.9297 108.974 29.5163C109.183 29.103 109.332 28.6236 109.421 28.0781C109.511 27.5412 109.519 27.0703 109.447 26.6655C109.379 26.2564 109.234 25.9389 109.012 25.7131C108.79 25.483 108.49 25.3679 108.111 25.3679C107.727 25.3679 107.382 25.4851 107.075 25.7195C106.768 25.9496 106.511 26.2713 106.302 26.6847C106.097 27.0937 105.95 27.5732 105.861 28.1229C105.771 28.6598 105.761 29.1307 105.829 29.5355C105.897 29.9403 106.044 30.2578 106.27 30.4879C106.496 30.7138 106.796 30.8267 107.171 30.8267ZM115.011 33L114.091 23.1818H117.229L117.504 29.4716H117.587L120.054 23.1818H123.116L123.525 29.4268H123.608L125.941 23.1818H129.08L124.88 33H121.537L120.949 27.2791H120.841L118.36 33H115.011ZM23.0071 55L22.0866 45.1818H25.2251L25.5 51.4716H25.5831L28.0504 45.1818H31.1122L31.5213 51.4268H31.6044L33.9375 45.1818H37.076L32.8764 55H29.5334L28.9453 49.2791H28.8366L26.3565 55H23.0071ZM40.7722 49.4006L39.839 55H36.7132L38.8865 41.9091H41.91L41.079 46.9844H41.1877C41.503 46.3793 41.9419 45.9062 42.5044 45.5653C43.0669 45.2244 43.7189 45.054 44.4604 45.054C45.1422 45.054 45.7132 45.2074 46.1735 45.5142C46.6337 45.8168 46.9597 46.245 47.1515 46.799C47.3432 47.353 47.3773 48.0007 47.2537 48.7422L46.2054 55H43.0797L44.0257 49.3558C44.111 48.8104 44.0407 48.3842 43.8148 48.0774C43.589 47.7706 43.2267 47.6172 42.7282 47.6172C42.4 47.6172 42.0975 47.6896 41.8205 47.8345C41.5478 47.9751 41.3198 48.1776 41.1365 48.4418C40.9533 48.706 40.8319 49.0256 40.7722 49.4006ZM50.8796 55.1662C50.2575 55.1662 49.7205 55.0618 49.2688 54.853C48.8214 54.6399 48.4933 54.3182 48.2844 53.8878C48.0799 53.4574 48.0309 52.9205 48.1374 52.277C48.2312 51.7315 48.4038 51.2734 48.6552 50.9027C48.9109 50.5277 49.2241 50.223 49.5948 49.9886C49.9698 49.7543 50.3874 49.5753 50.8477 49.4517C51.3079 49.3281 51.7894 49.245 52.2923 49.2024C52.8548 49.1513 53.3107 49.0959 53.6602 49.0362C54.0138 48.9766 54.2781 48.8935 54.4528 48.7869C54.6275 48.6761 54.734 48.5227 54.7724 48.3267V48.2947C54.8235 47.9666 54.7532 47.7131 54.5614 47.5341C54.3697 47.3551 54.082 47.2656 53.6985 47.2656C53.2894 47.2656 52.94 47.3551 52.6502 47.5341C52.3604 47.7131 52.158 47.9602 52.043 48.2756L49.1793 48.1733C49.3583 47.5767 49.6651 47.044 50.0998 46.5753C50.5344 46.1023 51.0863 45.7315 51.7553 45.4631C52.4286 45.1903 53.2063 45.054 54.0884 45.054C54.7106 45.054 55.2731 45.1286 55.7759 45.2777C56.2788 45.4226 56.7028 45.6357 57.0479 45.9169C57.3974 46.1939 57.6467 46.5348 57.7958 46.9396C57.945 47.3445 57.9769 47.8068 57.8917 48.3267L56.7731 55H53.8327L54.0629 53.6321H53.9862C53.756 53.9645 53.4854 54.2457 53.1744 54.4759C52.8675 54.706 52.5224 54.8786 52.1388 54.9936C51.7553 55.1087 51.3356 55.1662 50.8796 55.1662ZM52.1964 53.1207C52.5245 53.1207 52.8356 53.0526 53.1296 52.9162C53.4237 52.7798 53.6708 52.5923 53.8711 52.3537C54.0756 52.1108 54.2056 51.8295 54.261 51.5099L54.408 50.5767C54.3185 50.6236 54.2056 50.6662 54.0692 50.7045C53.9329 50.7429 53.788 50.7791 53.6346 50.8132C53.4812 50.843 53.3235 50.8729 53.1616 50.9027C53.0039 50.9283 52.8526 50.9517 52.7077 50.973C52.4009 51.0199 52.1346 51.0923 51.9087 51.1903C51.6829 51.2884 51.5018 51.4162 51.3654 51.5739C51.2333 51.7273 51.1523 51.9105 51.1225 52.1236C51.0714 52.4432 51.146 52.6903 51.3462 52.8651C51.5465 53.0355 51.8299 53.1207 52.1964 53.1207ZM65.8626 45.1818L65.4727 47.483H59.2788L59.6687 45.1818H65.8626ZM61.3498 42.8295H64.4755L62.967 51.9126C62.9371 52.1044 62.9414 52.2599 62.9798 52.3793C63.0224 52.4943 63.0991 52.5774 63.2099 52.6286C63.3249 52.6754 63.4656 52.6989 63.6317 52.6989C63.7468 52.6989 63.8746 52.6861 64.0153 52.6605C64.1559 52.6349 64.2624 52.6158 64.3349 52.603L64.4371 54.8594C64.271 54.9062 64.0472 54.9595 63.766 55.0192C63.489 55.0831 63.1651 55.1236 62.7944 55.1406C62.0444 55.1705 61.4244 55.0831 60.9343 54.8786C60.4485 54.6697 60.1055 54.3459 59.9052 53.907C59.7092 53.468 59.6708 52.9183 59.7901 52.2578L61.3498 42.8295ZM70.9986 58.6818C70.6236 58.6818 70.2741 58.652 69.9503 58.5923C69.6307 58.5369 69.358 58.4624 69.1321 58.3686L70.206 56.0994C70.4915 56.2017 70.7536 56.2592 70.9922 56.272C71.2351 56.2891 71.4524 56.2486 71.6442 56.1506C71.8402 56.0568 72.0107 55.8885 72.1555 55.6456L72.3345 55.3452L70.5384 45.1818H73.696L74.3352 52.1939H74.4375L77.4418 45.1818H80.8487L75.3707 55.9396C75.0938 56.4766 74.7592 56.9517 74.3672 57.3651C73.9751 57.7784 73.5021 58.1001 72.9482 58.3303C72.3984 58.5646 71.7486 58.6818 70.9986 58.6818ZM84.6712 55.1854C83.6357 55.1854 82.7813 54.9723 82.108 54.5462C81.4389 54.12 80.968 53.5256 80.6953 52.7628C80.4226 52 80.3693 51.1136 80.5355 50.1037C80.7017 49.098 81.0447 48.2159 81.5646 47.4574C82.0845 46.6989 82.7493 46.1087 83.5589 45.6868C84.3686 45.2649 85.2869 45.054 86.3139 45.054C87.3452 45.054 88.1953 45.267 88.8643 45.6932C89.5376 46.1193 90.0107 46.7138 90.2834 47.4766C90.5604 48.2393 90.6158 49.1278 90.4496 50.142C90.2834 51.1477 89.9382 52.0298 89.4141 52.7884C88.8899 53.5426 88.2251 54.1307 87.4197 54.5526C86.6143 54.9744 85.6982 55.1854 84.6712 55.1854ZM85.0227 52.8267C85.4062 52.8267 85.7493 52.7116 86.0518 52.4815C86.3587 52.2514 86.6165 51.9297 86.8253 51.5163C87.0341 51.103 87.1832 50.6236 87.2727 50.0781C87.3622 49.5412 87.3707 49.0703 87.2983 48.6655C87.2301 48.2564 87.0852 47.9389 86.8636 47.7131C86.642 47.483 86.3416 47.3679 85.9624 47.3679C85.5788 47.3679 85.2337 47.4851 84.9268 47.7195C84.62 47.9496 84.3622 48.2713 84.1534 48.6847C83.9489 49.0937 83.8018 49.5732 83.7124 50.1229C83.6229 50.6598 83.6122 51.1307 83.6804 51.5355C83.7486 51.9403 83.8956 52.2578 84.1214 52.4879C84.3473 52.7138 84.6477 52.8267 85.0227 52.8267ZM98.2766 50.7621L99.2099 45.1818H102.329L100.693 55H97.7141L98.0146 53.1719H97.9123C97.6097 53.7727 97.1644 54.25 96.5763 54.6037C95.9883 54.9531 95.3256 55.1278 94.5884 55.1278C93.9194 55.1278 93.3569 54.9744 92.9009 54.6676C92.445 54.3608 92.1211 53.9325 91.9293 53.3828C91.7418 52.8288 91.7077 52.1811 91.8271 51.4396L92.8754 45.1818H96.0011L95.0614 50.826C94.9805 51.3587 95.0508 51.7784 95.2724 52.0852C95.4982 52.392 95.8519 52.5455 96.3335 52.5455C96.6445 52.5455 96.9364 52.4773 97.2092 52.3409C97.4819 52.2003 97.712 51.9979 97.8995 51.7337C98.0913 51.4652 98.217 51.1413 98.2766 50.7621ZM102.682 55L104.319 45.1818H107.355L107.055 46.9716H107.157C107.442 46.3239 107.815 45.8423 108.275 45.527C108.736 45.2074 109.234 45.0476 109.771 45.0476C109.916 45.0476 110.061 45.0582 110.206 45.0795C110.355 45.0966 110.496 45.1222 110.628 45.1562L110.167 47.8793C110.023 47.8239 109.833 47.7834 109.599 47.7578C109.364 47.728 109.151 47.7131 108.959 47.7131C108.589 47.7131 108.243 47.7962 107.924 47.9624C107.608 48.1243 107.34 48.3523 107.118 48.6463C106.901 48.9361 106.758 49.277 106.69 49.669L105.808 55H102.682ZM28.3509 67.1818L27.9609 69.483H21.767L22.157 67.1818H28.3509ZM23.8381 64.8295H26.9638L25.4553 73.9126C25.4254 74.1044 25.4297 74.2599 25.468 74.3793C25.5107 74.4943 25.5874 74.5774 25.6982 74.6286C25.8132 74.6754 25.9538 74.6989 26.12 74.6989C26.2351 74.6989 26.3629 74.6861 26.5036 74.6605C26.6442 74.6349 26.7507 74.6158 26.8232 74.603L26.9254 76.8594C26.7592 76.9062 26.5355 76.9595 26.2543 77.0192C25.9773 77.0831 25.6534 77.1236 25.2827 77.1406C24.5327 77.1705 23.9126 77.0831 23.4226 76.8786C22.9368 76.6697 22.5938 76.3459 22.3935 75.907C22.1974 75.468 22.1591 74.9183 22.2784 74.2578L23.8381 64.8295ZM32.7678 77.1854C31.7408 77.1854 30.8885 76.983 30.2109 76.5781C29.5376 76.169 29.0646 75.5874 28.7919 74.8331C28.5192 74.0746 28.4702 73.1733 28.6449 72.1293C28.8153 71.1151 29.1626 70.2287 29.6868 69.4702C30.2152 68.7074 30.88 68.1151 31.6811 67.6932C32.4822 67.267 33.375 67.054 34.3594 67.054C35.0582 67.054 35.6783 67.1626 36.2195 67.38C36.7607 67.5973 37.2081 67.9212 37.5618 68.3516C37.9155 68.7777 38.1563 69.3018 38.2841 69.924C38.4119 70.5462 38.4077 71.2599 38.2713 72.0653L38.1499 72.8452H29.6229L29.9105 71.0298H35.5355C35.5866 70.6974 35.5589 70.4013 35.4524 70.1413C35.3459 69.8814 35.1733 69.679 34.9347 69.5341C34.7003 69.3849 34.4126 69.3104 34.0717 69.3104C33.7266 69.3104 33.4027 69.3913 33.1001 69.5533C32.8018 69.7109 32.5483 69.924 32.3395 70.1925C32.1307 70.4609 31.9943 70.7635 31.9304 71.1001L31.5916 72.9602C31.5234 73.3736 31.5426 73.7273 31.6491 74.0213C31.7557 74.3153 31.9389 74.5412 32.1989 74.6989C32.4588 74.8523 32.7933 74.929 33.2024 74.929C33.4751 74.929 33.7308 74.8928 33.9695 74.8203C34.2081 74.7436 34.4212 74.6307 34.6087 74.4815C34.8004 74.3281 34.956 74.1428 35.0753 73.9254L37.9261 74.0085C37.696 74.652 37.3402 75.2124 36.8587 75.6896C36.3771 76.1626 35.7891 76.5312 35.0945 76.7955C34.4041 77.0554 33.6286 77.1854 32.7678 77.1854ZM41.7917 77.1662C41.1696 77.1662 40.6326 77.0618 40.1809 76.853C39.7335 76.6399 39.4054 76.3182 39.1966 75.8878C38.992 75.4574 38.943 74.9205 39.0495 74.277C39.1433 73.7315 39.3159 73.2734 39.5673 72.9027C39.823 72.5277 40.1362 72.223 40.5069 71.9886C40.8819 71.7543 41.2995 71.5753 41.7598 71.4517C42.22 71.3281 42.7015 71.245 43.2044 71.2024C43.7669 71.1513 44.2228 71.0959 44.5723 71.0362C44.926 70.9766 45.1902 70.8935 45.3649 70.7869C45.5396 70.6761 45.6461 70.5227 45.6845 70.3267V70.2947C45.7356 69.9666 45.6653 69.7131 45.4735 69.5341C45.2818 69.3551 44.9941 69.2656 44.6106 69.2656C44.2015 69.2656 43.8521 69.3551 43.5623 69.5341C43.2725 69.7131 43.0701 69.9602 42.9551 70.2756L40.0914 70.1733C40.2704 69.5767 40.5772 69.044 41.0119 68.5753C41.4466 68.1023 41.9984 67.7315 42.6674 67.4631C43.3407 67.1903 44.1184 67.054 45.0005 67.054C45.6227 67.054 46.1852 67.1286 46.688 67.2777C47.1909 67.4226 47.6149 67.6357 47.9601 67.9169C48.3095 68.1939 48.5588 68.5348 48.7079 68.9396C48.8571 69.3445 48.889 69.8068 48.8038 70.3267L47.6852 77H44.7449L44.975 75.6321H44.8983C44.6681 75.9645 44.3975 76.2457 44.0865 76.4759C43.7797 76.706 43.4345 76.8786 43.051 76.9936C42.6674 77.1087 42.2477 77.1662 41.7917 77.1662ZM43.1085 75.1207C43.4366 75.1207 43.7477 75.0526 44.0417 74.9162C44.3358 74.7798 44.5829 74.5923 44.7832 74.3537C44.9877 74.1108 45.1177 73.8295 45.1731 73.5099L45.3201 72.5767C45.2306 72.6236 45.1177 72.6662 44.9814 72.7045C44.845 72.7429 44.7001 72.7791 44.5467 72.8132C44.3933 72.843 44.2356 72.8729 44.0737 72.9027C43.916 72.9283 43.7647 72.9517 43.6199 72.973C43.313 73.0199 43.0467 73.0923 42.8208 73.1903C42.595 73.2884 42.4139 73.4162 42.2775 73.5739C42.1454 73.7273 42.0645 73.9105 42.0346 74.1236C41.9835 74.4432 42.0581 74.6903 42.2583 74.8651C42.4586 75.0355 42.742 75.1207 43.1085 75.1207ZM49.6156 77L51.252 67.1818H54.2243L53.9302 68.9844H54.0389C54.3372 68.3878 54.7591 67.9169 55.3045 67.5717C55.85 67.2266 56.4593 67.054 57.1326 67.054C57.8102 67.054 58.362 67.2287 58.7882 67.5781C59.2186 67.9276 59.4508 68.3963 59.4849 68.9844H59.5872C59.8684 68.4006 60.3031 67.9339 60.8912 67.5845C61.4835 67.2308 62.144 67.054 62.8727 67.054C63.7931 67.054 64.4941 67.3523 64.9757 67.9489C65.4615 68.5412 65.617 69.3551 65.4423 70.3906L64.3429 77H61.2235L62.2207 71.1065C62.2889 70.6165 62.2164 70.2436 62.0034 69.9879C61.7946 69.728 61.4899 69.598 61.0893 69.598C60.6589 69.598 60.2988 69.7365 60.0091 70.0135C59.7235 70.2905 59.5467 70.6655 59.4785 71.1385L58.4877 77H55.4771L56.4806 71.0746C56.5446 70.6186 56.4743 70.2585 56.2697 69.9943C56.0694 69.7301 55.7647 69.598 55.3556 69.598C55.0872 69.598 54.8379 69.6641 54.6078 69.7962C54.3777 69.924 54.1838 70.1072 54.0261 70.3459C53.8727 70.5845 53.7725 70.8658 53.7257 71.1896L52.7413 77H49.6156ZM70.1277 77L71.764 67.1818H74.8897L73.2534 77H70.1277ZM73.5474 66.0312C73.1042 66.0312 72.7441 65.8842 72.4672 65.5902C72.1902 65.2962 72.0815 64.9446 72.1412 64.5355C72.2008 64.1222 72.4096 63.7706 72.7676 63.4808C73.1255 63.1911 73.524 63.0462 73.9629 63.0462C74.4061 63.0462 74.7619 63.1911 75.0304 63.4808C75.3031 63.7706 75.4096 64.1222 75.35 64.5355C75.2988 64.9446 75.0943 65.2962 74.7363 65.5902C74.3826 65.8842 73.9863 66.0312 73.5474 66.0312ZM84.9268 70.1797L82.108 70.2564C82.1122 70.0476 82.0653 69.8643 81.9673 69.7067C81.8693 69.5447 81.7308 69.419 81.5518 69.3295C81.3729 69.2401 81.1598 69.1953 80.9126 69.1953C80.5121 69.1953 80.152 69.2848 79.8324 69.4638C79.517 69.6428 79.3402 69.875 79.3018 70.1605C79.272 70.3139 79.3146 70.4482 79.4297 70.5632C79.5447 70.674 79.8004 70.772 80.1967 70.8572L82.0376 71.2152C82.9837 71.4027 83.6697 71.7287 84.0959 72.1932C84.5263 72.6534 84.6797 73.2628 84.5561 74.0213C84.4453 74.669 84.1598 75.2294 83.6996 75.7024C83.2436 76.1754 82.6619 76.5419 81.9545 76.8018C81.2514 77.0575 80.4737 77.1854 79.6214 77.1854C78.1811 77.1854 77.0945 76.8956 76.3615 76.3161C75.6328 75.7322 75.2919 74.9588 75.3388 73.9957L78.3814 73.919C78.3942 74.2812 78.5156 74.554 78.7457 74.7372C78.9801 74.9162 79.2976 75.0099 79.6982 75.0185C80.1371 75.027 80.5163 74.9354 80.8359 74.7436C81.1555 74.5518 81.3345 74.3153 81.3729 74.0341C81.3984 73.8509 81.3366 73.7081 81.1875 73.6058C81.0426 73.5036 80.772 73.4119 80.3757 73.331L78.7138 73.005C77.7592 72.8217 77.0689 72.4766 76.6428 71.9695C76.2209 71.4581 76.076 70.8061 76.2081 70.0135C76.3189 69.3828 76.5788 68.848 76.9879 68.4091C77.4013 67.9659 77.9403 67.6293 78.6051 67.3991C79.2741 67.169 80.0369 67.054 80.8935 67.054C82.2656 67.054 83.3011 67.3331 84 67.8913C84.7031 68.4453 85.0121 69.2081 84.9268 70.1797ZM96.5012 72.7621L97.4345 67.1818H100.554L98.9174 77H95.9387L96.2392 75.1719H96.1369C95.8343 75.7727 95.389 76.25 94.801 76.6037C94.2129 76.9531 93.5502 77.1278 92.813 77.1278C92.144 77.1278 91.5815 76.9744 91.1255 76.6676C90.6696 76.3608 90.3457 75.9325 90.1539 75.3828C89.9664 74.8288 89.9324 74.1811 90.0517 73.4396L91.1 67.1818H94.2257L93.286 72.826C93.2051 73.3587 93.2754 73.7784 93.497 74.0852C93.7228 74.392 94.0765 74.5455 94.5581 74.5455C94.8691 74.5455 95.161 74.4773 95.4338 74.3409C95.7065 74.2003 95.9366 73.9979 96.1241 73.7337C96.3159 73.4652 96.4416 73.1413 96.5012 72.7621ZM100.312 80.6818L102.575 67.1818H105.669L105.394 68.8629H105.49C105.661 68.5646 105.886 68.277 106.168 68C106.453 67.723 106.796 67.4972 107.197 67.3224C107.597 67.1435 108.055 67.054 108.571 67.054C109.253 67.054 109.86 67.233 110.393 67.5909C110.925 67.9489 111.313 68.5007 111.556 69.2464C111.799 69.9922 111.825 70.9425 111.633 72.0973C111.45 73.2095 111.117 74.1406 110.636 74.8906C110.158 75.6406 109.592 76.2031 108.935 76.5781C108.279 76.9531 107.591 77.1406 106.871 77.1406C106.376 77.1406 105.959 77.0597 105.618 76.8977C105.281 76.7358 105.015 76.5227 104.819 76.2585C104.623 75.9943 104.487 75.7109 104.41 75.4084H104.32L103.451 80.6818H100.312ZM104.819 72.0909C104.734 72.6193 104.729 73.0795 104.806 73.4716C104.883 73.8636 105.038 74.1683 105.273 74.3857C105.511 74.5987 105.82 74.7053 106.2 74.7053C106.583 74.7053 106.924 74.5987 107.222 74.3857C107.525 74.1683 107.778 73.8636 107.983 73.4716C108.188 73.0795 108.337 72.6193 108.43 72.0909C108.511 71.5625 108.513 71.1044 108.437 70.7166C108.364 70.3288 108.213 70.0284 107.983 69.8153C107.753 69.6023 107.444 69.4957 107.056 69.4957C106.677 69.4957 106.332 69.6001 106.021 69.8089C105.714 70.0178 105.458 70.3161 105.254 70.7038C105.049 71.0916 104.904 71.554 104.819 72.0909ZM123.501 67.1818L123.111 69.483H116.917L117.307 67.1818H123.501ZM118.988 64.8295H122.114L120.606 73.9126C120.576 74.1044 120.58 74.2599 120.618 74.3793C120.661 74.4943 120.738 74.5774 120.849 74.6286C120.964 74.6754 121.104 74.6989 121.27 74.6989C121.385 74.6989 121.513 74.6861 121.654 74.6605C121.795 74.6349 121.901 74.6158 121.974 74.603L122.076 76.8594C121.91 76.9062 121.686 76.9595 121.405 77.0192C121.128 77.0831 120.804 77.1236 120.433 77.1406C119.683 77.1705 119.063 77.0831 118.573 76.8786C118.087 76.6697 117.744 76.3459 117.544 75.907C117.348 75.468 117.309 74.9183 117.429 74.2578L118.988 64.8295ZM127.931 77.1854C126.895 77.1854 126.041 76.9723 125.368 76.5462C124.699 76.12 124.228 75.5256 123.955 74.7628C123.682 74 123.629 73.1136 123.795 72.1037C123.961 71.098 124.305 70.2159 124.824 69.4574C125.344 68.6989 126.009 68.1087 126.819 67.6868C127.628 67.2649 128.547 67.054 129.574 67.054C130.605 67.054 131.455 67.267 132.124 67.6932C132.797 68.1193 133.27 68.7138 133.543 69.4766C133.82 70.2393 133.876 71.1278 133.709 72.142C133.543 73.1477 133.198 74.0298 132.674 74.7884C132.15 75.5426 131.485 76.1307 130.68 76.5526C129.874 76.9744 128.958 77.1854 127.931 77.1854ZM128.282 74.8267C128.666 74.8267 129.009 74.7116 129.312 74.4815C129.618 74.2514 129.876 73.9297 130.085 73.5163C130.294 73.103 130.443 72.6236 130.532 72.0781C130.622 71.5412 130.631 71.0703 130.558 70.6655C130.49 70.2564 130.345 69.9389 130.123 69.7131C129.902 69.483 129.601 69.3679 129.222 69.3679C128.839 69.3679 128.493 69.4851 128.187 69.7195C127.88 69.9496 127.622 70.2713 127.413 70.6847C127.209 71.0937 127.062 71.5732 126.972 72.1229C126.883 72.6598 126.872 73.1307 126.94 73.5355C127.008 73.9403 127.155 74.2578 127.381 74.4879C127.607 74.7138 127.907 74.8267 128.282 74.8267Z" fill="black"/>
<circle cx="180" cy="40" r="1.5" fill="black" stroke="black"/>
<circle cx="180" cy="59" r="1.5" fill="black" stroke="black"/>
<path d="M181.5 49.5C181.5 50.9762 181.282 52.2907 180.944 53.2182C180.775 53.684 180.585 54.0258 180.399 54.2418C180.212 54.4594 180.076 54.5 180 54.5C179.924 54.5 179.788 54.4594 179.601 54.2418C179.415 54.0258 179.225 53.684 179.056 53.2182C178.718 52.2907 178.5 50.9762 178.5 49.5C178.5 48.0238 178.718 46.7093 179.056 45.7818C179.225 45.316 179.415 44.9742 179.601 44.7582C179.788 44.5406 179.924 44.5 180 44.5C180.076 44.5 180.212 44.5406 180.399 44.7582C180.585 44.9742 180.775 45.316 180.944 45.7818C181.282 46.7093 181.5 48.0238 181.5 49.5Z" fill="black" stroke="black"/>
</svg>
