<svg width="190" height="277" viewBox="0 0 190 277" fill="none" xmlns="http://www.w3.org/2000/svg">
<rect width="190" height="277" rx="15" fill="black"/>
<path d="M17.8636 33.3636H19.2727V41.6818C19.2727 42.4242 19.1364 43.0549 18.8636 43.5739C18.5909 44.0928 18.2064 44.4867 17.7102 44.7557C17.214 45.0246 16.6288 45.1591 15.9545 45.1591C15.3182 45.1591 14.7519 45.0436 14.2557 44.8125C13.7595 44.5777 13.3693 44.2443 13.0852 43.8125C12.8011 43.3807 12.6591 42.8674 12.6591 42.2727H14.0455C14.0455 42.6023 14.1269 42.8902 14.2898 43.1364C14.4564 43.3788 14.6837 43.5682 14.9716 43.7045C15.2595 43.8409 15.5871 43.9091 15.9545 43.9091C16.3598 43.9091 16.7045 43.8239 16.9886 43.6534C17.2727 43.483 17.4886 43.233 17.6364 42.9034C17.7879 42.5701 17.8636 42.1629 17.8636 41.6818V33.3636ZM24.483 45.2045C23.9299 45.2045 23.428 45.1004 22.9773 44.892C22.5265 44.6799 22.1686 44.375 21.9034 43.9773C21.6383 43.5758 21.5057 43.0909 21.5057 42.5227C21.5057 42.0227 21.6042 41.6174 21.8011 41.3068C21.9981 40.9924 22.2614 40.7462 22.5909 40.5682C22.9205 40.3902 23.2841 40.2576 23.6818 40.1705C24.0833 40.0795 24.4867 40.0076 24.892 39.9545C25.4223 39.8864 25.8523 39.8352 26.1818 39.8011C26.5152 39.7633 26.7576 39.7008 26.9091 39.6136C27.0644 39.5265 27.142 39.375 27.142 39.1591V39.1136C27.142 38.553 26.9886 38.1174 26.6818 37.8068C26.3788 37.4962 25.9186 37.3409 25.3011 37.3409C24.661 37.3409 24.1591 37.4811 23.7955 37.7614C23.4318 38.0417 23.1761 38.3409 23.0284 38.6591L21.7557 38.2045C21.983 37.6742 22.286 37.2614 22.6648 36.9659C23.0473 36.6667 23.464 36.4583 23.9148 36.3409C24.3693 36.2197 24.8163 36.1591 25.2557 36.1591C25.536 36.1591 25.858 36.1932 26.2216 36.2614C26.589 36.3258 26.9432 36.4602 27.2841 36.6648C27.6288 36.8693 27.9148 37.178 28.142 37.5909C28.3693 38.0038 28.483 38.5568 28.483 39.25V45H27.142V43.8182H27.0739C26.983 44.0076 26.8314 44.2102 26.6193 44.4261C26.4072 44.642 26.125 44.8258 25.7727 44.9773C25.4205 45.1288 24.9905 45.2045 24.483 45.2045ZM24.6875 44C25.2178 44 25.6648 43.8958 26.0284 43.6875C26.3958 43.4792 26.6723 43.2102 26.858 42.8807C27.0473 42.5511 27.142 42.2045 27.142 41.8409V40.6136C27.0852 40.6818 26.9602 40.7443 26.767 40.8011C26.5777 40.8542 26.358 40.9015 26.108 40.9432C25.8617 40.9811 25.6212 41.0152 25.3864 41.0455C25.1553 41.072 24.9678 41.0947 24.8239 41.1136C24.4754 41.1591 24.1496 41.233 23.8466 41.3352C23.5473 41.4337 23.3049 41.5833 23.1193 41.7841C22.9375 41.9811 22.8466 42.25 22.8466 42.5909C22.8466 43.0568 23.0189 43.4091 23.3636 43.6477C23.7121 43.8826 24.1534 44 24.6875 44ZM32.2713 39.75V45H30.9304V36.2727H32.2259V37.6364H32.3395C32.544 37.1932 32.8546 36.8371 33.2713 36.5682C33.688 36.2955 34.2259 36.1591 34.8849 36.1591C35.4759 36.1591 35.9929 36.2803 36.4361 36.5227C36.8793 36.7614 37.224 37.125 37.4702 37.6136C37.7164 38.0985 37.8395 38.7121 37.8395 39.4545V45H36.4986V39.5455C36.4986 38.8598 36.3205 38.3258 35.9645 37.9432C35.6084 37.5568 35.1198 37.3636 34.4986 37.3636C34.0705 37.3636 33.688 37.4564 33.3509 37.642C33.0175 37.8277 32.7543 38.0985 32.5611 38.4545C32.3679 38.8106 32.2713 39.2424 32.2713 39.75ZM45.7898 41.4318V36.2727H47.1307V45H45.7898V43.5227H45.6989C45.4943 43.9659 45.1761 44.3428 44.7443 44.6534C44.3125 44.9602 43.767 45.1136 43.108 45.1136C42.5625 45.1136 42.0777 44.9943 41.6534 44.7557C41.2292 44.5133 40.8958 44.1496 40.6534 43.6648C40.411 43.1761 40.2898 42.5606 40.2898 41.8182V36.2727H41.6307V41.7273C41.6307 42.3636 41.8087 42.8712 42.1648 43.25C42.5246 43.6288 42.983 43.8182 43.5398 43.8182C43.8731 43.8182 44.2121 43.733 44.5568 43.5625C44.9053 43.392 45.197 43.1307 45.4318 42.7784C45.6705 42.4261 45.7898 41.9773 45.7898 41.4318ZM52.1548 45.2045C51.6018 45.2045 51.0999 45.1004 50.6491 44.892C50.1984 44.6799 49.8404 44.375 49.5753 43.9773C49.3101 43.5758 49.1776 43.0909 49.1776 42.5227C49.1776 42.0227 49.276 41.6174 49.473 41.3068C49.67 40.9924 49.9332 40.7462 50.2628 40.5682C50.5923 40.3902 50.956 40.2576 51.3537 40.1705C51.7552 40.0795 52.1586 40.0076 52.5639 39.9545C53.0942 39.8864 53.5241 39.8352 53.8537 39.8011C54.187 39.7633 54.4295 39.7008 54.581 39.6136C54.7363 39.5265 54.8139 39.375 54.8139 39.1591V39.1136C54.8139 38.553 54.6605 38.1174 54.3537 37.8068C54.0507 37.4962 53.5904 37.3409 52.973 37.3409C52.3329 37.3409 51.831 37.4811 51.4673 37.7614C51.1037 38.0417 50.848 38.3409 50.7003 38.6591L49.4276 38.2045C49.6548 37.6742 49.9579 37.2614 50.3366 36.9659C50.7192 36.6667 51.1359 36.4583 51.5866 36.3409C52.0412 36.2197 52.4882 36.1591 52.9276 36.1591C53.2079 36.1591 53.5298 36.1932 53.8935 36.2614C54.2609 36.3258 54.6151 36.4602 54.956 36.6648C55.3007 36.8693 55.5866 37.178 55.8139 37.5909C56.0412 38.0038 56.1548 38.5568 56.1548 39.25V45H54.8139V43.8182H54.7457C54.6548 44.0076 54.5033 44.2102 54.2912 44.4261C54.0791 44.642 53.7969 44.8258 53.4446 44.9773C53.0923 45.1288 52.6624 45.2045 52.1548 45.2045ZM52.3594 44C52.8897 44 53.3366 43.8958 53.7003 43.6875C54.0677 43.4792 54.3442 43.2102 54.5298 42.8807C54.7192 42.5511 54.8139 42.2045 54.8139 41.8409V40.6136C54.7571 40.6818 54.6321 40.7443 54.4389 40.8011C54.2495 40.8542 54.0298 40.9015 53.7798 40.9432C53.5336 40.9811 53.2931 41.0152 53.0582 41.0455C52.8272 41.072 52.6397 41.0947 52.4957 41.1136C52.1473 41.1591 51.8215 41.233 51.5185 41.3352C51.2192 41.4337 50.9768 41.5833 50.7912 41.7841C50.6094 41.9811 50.5185 42.25 50.5185 42.5909C50.5185 43.0568 50.6908 43.4091 51.0355 43.6477C51.384 43.8826 51.8253 44 52.3594 44ZM58.6023 45V36.2727H59.8977V37.5909H59.9886C60.1477 37.1591 60.4356 36.8087 60.8523 36.5398C61.2689 36.2708 61.7386 36.1364 62.2614 36.1364C62.3598 36.1364 62.483 36.1383 62.6307 36.142C62.7784 36.1458 62.8902 36.1515 62.9659 36.1591V37.5227C62.9205 37.5114 62.8163 37.4943 62.6534 37.4716C62.4943 37.4451 62.3258 37.4318 62.1477 37.4318C61.7235 37.4318 61.3447 37.5208 61.0114 37.6989C60.6818 37.8731 60.4205 38.1155 60.2273 38.4261C60.0379 38.733 59.9432 39.0833 59.9432 39.4773V45H58.6023ZM65.6847 48.2727C65.4574 48.2727 65.2547 48.2538 65.0767 48.2159C64.8987 48.1818 64.7756 48.1477 64.7074 48.1136L65.0483 46.9318C65.3741 47.0152 65.6619 47.0455 65.9119 47.0227C66.1619 47 66.3835 46.8883 66.5767 46.6875C66.7737 46.4905 66.9536 46.1705 67.1165 45.7273L67.3665 45.0455L64.1392 36.2727H65.5938L68.0028 43.2273H68.0938L70.5028 36.2727H71.9574L68.2528 46.2727C68.0862 46.7235 67.8797 47.0966 67.6335 47.392C67.3873 47.6913 67.1013 47.9129 66.7756 48.0568C66.4536 48.2008 66.09 48.2727 65.6847 48.2727ZM78.2045 45V43.9773L82.0455 39.7727C82.4962 39.2803 82.8674 38.8523 83.1591 38.4886C83.4508 38.1212 83.6667 37.7765 83.8068 37.4545C83.9508 37.1288 84.0227 36.7879 84.0227 36.4318C84.0227 36.0227 83.9242 35.6686 83.7273 35.3693C83.5341 35.0701 83.2689 34.839 82.9318 34.6761C82.5947 34.5133 82.2159 34.4318 81.7955 34.4318C81.3485 34.4318 80.9583 34.5246 80.625 34.7102C80.2955 34.892 80.0398 35.1477 79.858 35.4773C79.6799 35.8068 79.5909 36.1932 79.5909 36.6364H78.25C78.25 35.9545 78.4072 35.3561 78.7216 34.8409C79.036 34.3258 79.464 33.9242 80.0057 33.6364C80.5511 33.3485 81.1629 33.2045 81.8409 33.2045C82.5227 33.2045 83.1269 33.3485 83.6534 33.6364C84.1799 33.9242 84.5928 34.3125 84.892 34.8011C85.1913 35.2898 85.3409 35.8333 85.3409 36.4318C85.3409 36.8598 85.2633 37.2784 85.108 37.6875C84.9564 38.0928 84.6913 38.5455 84.3125 39.0455C83.9375 39.5417 83.4167 40.1477 82.75 40.8636L80.1364 43.6591V43.75H85.5455V45H78.2045ZM91.5284 45.1591C90.8617 45.1591 90.2614 45.0265 89.7273 44.7614C89.1932 44.4962 88.7652 44.1326 88.4432 43.6705C88.1212 43.2083 87.9451 42.6818 87.9148 42.0909H89.2784C89.3314 42.6174 89.5701 43.053 89.9943 43.3977C90.4223 43.7386 90.9337 43.9091 91.5284 43.9091C92.0057 43.9091 92.4299 43.7973 92.8011 43.5739C93.1761 43.3504 93.4697 43.0436 93.6818 42.6534C93.8977 42.2595 94.0057 41.8144 94.0057 41.3182C94.0057 40.8106 93.8939 40.358 93.6705 39.9602C93.4508 39.5587 93.1477 39.2424 92.7614 39.0114C92.375 38.7803 91.9337 38.6629 91.4375 38.6591C91.0814 38.6553 90.7159 38.7102 90.3409 38.8239C89.9659 38.9337 89.6572 39.0758 89.4148 39.25L88.0966 39.0909L88.8011 33.3636H94.8466V34.6136H89.983L89.5739 38.0455H89.642C89.8807 37.8561 90.1799 37.6989 90.5398 37.5739C90.8996 37.4489 91.2746 37.3864 91.6648 37.3864C92.3769 37.3864 93.0114 37.5568 93.5682 37.8977C94.1288 38.2348 94.5682 38.697 94.8864 39.2841C95.2083 39.8712 95.3693 40.5417 95.3693 41.2955C95.3693 42.0379 95.2027 42.7008 94.8693 43.2841C94.5398 43.8636 94.0852 44.322 93.5057 44.6591C92.9261 44.9924 92.267 45.1591 91.5284 45.1591ZM99.2116 43.4091L99.1207 44.0227C99.0563 44.4545 98.9579 44.9167 98.8253 45.4091C98.6965 45.9015 98.562 46.3655 98.4219 46.8011C98.2817 47.2367 98.1662 47.5833 98.0753 47.8409H97.0526C97.1018 47.5985 97.1662 47.2784 97.2457 46.8807C97.3253 46.483 97.4048 46.0379 97.4844 45.5455C97.5677 45.0568 97.6359 44.5568 97.6889 44.0455L97.7571 43.4091H99.2116ZM106.173 45V43.9773L110.014 39.7727C110.465 39.2803 110.836 38.8523 111.128 38.4886C111.42 38.1212 111.635 37.7765 111.776 37.4545C111.92 37.1288 111.991 36.7879 111.991 36.4318C111.991 36.0227 111.893 35.6686 111.696 35.3693C111.503 35.0701 111.238 34.839 110.901 34.6761C110.563 34.5133 110.185 34.4318 109.764 34.4318C109.317 34.4318 108.927 34.5246 108.594 34.7102C108.264 34.892 108.009 35.1477 107.827 35.4773C107.649 35.8068 107.56 36.1932 107.56 36.6364H106.219C106.219 35.9545 106.376 35.3561 106.69 34.8409C107.005 34.3258 107.433 33.9242 107.974 33.6364C108.52 33.3485 109.132 33.2045 109.81 33.2045C110.491 33.2045 111.096 33.3485 111.622 33.6364C112.149 33.9242 112.562 34.3125 112.861 34.8011C113.16 35.2898 113.31 35.8333 113.31 36.4318C113.31 36.8598 113.232 37.2784 113.077 37.6875C112.925 38.0928 112.66 38.5455 112.281 39.0455C111.906 39.5417 111.385 40.1477 110.719 40.8636L108.105 43.6591V43.75H113.514V45H106.173ZM119.656 45.1591C118.8 45.1591 118.071 44.9261 117.469 44.4602C116.866 43.9905 116.406 43.3106 116.088 42.4205C115.77 41.5265 115.611 40.447 115.611 39.1818C115.611 37.9242 115.77 36.8504 116.088 35.9602C116.41 35.0663 116.872 34.3845 117.474 33.9148C118.08 33.4413 118.808 33.2045 119.656 33.2045C120.505 33.2045 121.23 33.4413 121.832 33.9148C122.438 34.3845 122.901 35.0663 123.219 35.9602C123.541 36.8504 123.702 37.9242 123.702 39.1818C123.702 40.447 123.543 41.5265 123.224 42.4205C122.906 43.3106 122.446 43.9905 121.844 44.4602C121.241 44.9261 120.512 45.1591 119.656 45.1591ZM119.656 43.9091C120.505 43.9091 121.164 43.5 121.634 42.6818C122.103 41.8636 122.338 40.697 122.338 39.1818C122.338 38.1742 122.23 37.3163 122.014 36.608C121.802 35.8996 121.495 35.3598 121.094 34.9886C120.696 34.6174 120.217 34.4318 119.656 34.4318C118.815 34.4318 118.158 34.8466 117.685 35.6761C117.211 36.5019 116.974 37.6705 116.974 39.1818C116.974 40.1894 117.08 41.0455 117.293 41.75C117.505 42.4545 117.81 42.9905 118.207 43.358C118.609 43.7254 119.092 43.9091 119.656 43.9091ZM125.861 45V43.9773L129.702 39.7727C130.152 39.2803 130.524 38.8523 130.815 38.4886C131.107 38.1212 131.323 37.7765 131.463 37.4545C131.607 37.1288 131.679 36.7879 131.679 36.4318C131.679 36.0227 131.58 35.6686 131.384 35.3693C131.19 35.0701 130.925 34.839 130.588 34.6761C130.251 34.5133 129.872 34.4318 129.452 34.4318C129.005 34.4318 128.615 34.5246 128.281 34.7102C127.952 34.892 127.696 35.1477 127.514 35.4773C127.336 35.8068 127.247 36.1932 127.247 36.6364H125.906C125.906 35.9545 126.063 35.3561 126.378 34.8409C126.692 34.3258 127.12 33.9242 127.662 33.6364C128.207 33.3485 128.819 33.2045 129.497 33.2045C130.179 33.2045 130.783 33.3485 131.31 33.6364C131.836 33.9242 132.249 34.3125 132.548 34.8011C132.848 35.2898 132.997 35.8333 132.997 36.4318C132.997 36.8598 132.92 37.2784 132.764 37.6875C132.613 38.0928 132.348 38.5455 131.969 39.0455C131.594 39.5417 131.073 40.1477 130.406 40.8636L127.793 43.6591V43.75H133.202V45H125.861ZM135.548 45V43.9773L139.389 39.7727C139.84 39.2803 140.211 38.8523 140.503 38.4886C140.795 38.1212 141.01 37.7765 141.151 37.4545C141.295 37.1288 141.366 36.7879 141.366 36.4318C141.366 36.0227 141.268 35.6686 141.071 35.3693C140.878 35.0701 140.613 34.839 140.276 34.6761C139.938 34.5133 139.56 34.4318 139.139 34.4318C138.692 34.4318 138.302 34.5246 137.969 34.7102C137.639 34.892 137.384 35.1477 137.202 35.4773C137.024 35.8068 136.935 36.1932 136.935 36.6364H135.594C135.594 35.9545 135.751 35.3561 136.065 34.8409C136.38 34.3258 136.808 33.9242 137.349 33.6364C137.895 33.3485 138.507 33.2045 139.185 33.2045C139.866 33.2045 140.471 33.3485 140.997 33.6364C141.524 33.9242 141.937 34.3125 142.236 34.8011C142.535 35.2898 142.685 35.8333 142.685 36.4318C142.685 36.8598 142.607 37.2784 142.452 37.6875C142.3 38.0928 142.035 38.5455 141.656 39.0455C141.281 39.5417 140.76 40.1477 140.094 40.8636L137.48 43.6591V43.75H142.889V45H135.548Z" fill="#CFDEDB"/>
<path d="M16.858 20.5455C16.8153 20.1856 16.6425 19.9062 16.3395 19.7074C16.0365 19.5085 15.6648 19.4091 15.2244 19.4091C14.9025 19.4091 14.6207 19.4612 14.3793 19.5653C14.1402 19.6695 13.9531 19.8127 13.8182 19.995C13.6856 20.1773 13.6193 20.3845 13.6193 20.6165C13.6193 20.8106 13.6655 20.9775 13.7578 21.1172C13.8525 21.2545 13.9732 21.3693 14.12 21.4616C14.2668 21.5516 14.4207 21.6262 14.5817 21.6854C14.7427 21.7422 14.8906 21.7884 15.0256 21.8239L15.7642 22.0227C15.9536 22.0724 16.1643 22.1411 16.3963 22.2287C16.6307 22.3163 16.8544 22.4358 17.0675 22.5874C17.2829 22.7365 17.4605 22.9283 17.6001 23.1626C17.7398 23.397 17.8097 23.6847 17.8097 24.0256C17.8097 24.4186 17.7067 24.7737 17.5007 25.0909C17.2971 25.4081 16.9988 25.6603 16.6058 25.8473C16.2152 26.0343 15.7405 26.1278 15.1818 26.1278C14.661 26.1278 14.21 26.0438 13.8288 25.8757C13.45 25.7076 13.1518 25.4732 12.9339 25.1726C12.7185 24.8719 12.5966 24.5227 12.5682 24.125H13.4773C13.5009 24.3996 13.5933 24.6269 13.7543 24.8068C13.9176 24.9844 14.1236 25.117 14.3722 25.2045C14.6231 25.2898 14.893 25.3324 15.1818 25.3324C15.518 25.3324 15.8198 25.2779 16.0874 25.169C16.3549 25.0578 16.5668 24.9039 16.723 24.7074C16.8793 24.5085 16.9574 24.2765 16.9574 24.0114C16.9574 23.7699 16.8899 23.5734 16.755 23.4219C16.62 23.2704 16.4425 23.1473 16.2223 23.0526C16.0021 22.9579 15.7642 22.875 15.5085 22.804L14.6136 22.5483C14.0455 22.3849 13.5956 22.1518 13.2642 21.8487C12.9328 21.5457 12.767 21.1491 12.767 20.6591C12.767 20.2519 12.8771 19.8968 13.0973 19.5938C13.3198 19.2884 13.6181 19.0516 13.9922 18.8835C14.3686 18.7131 14.7888 18.6278 15.2528 18.6278C15.7216 18.6278 16.1383 18.7119 16.5028 18.88C16.8674 19.0457 17.1563 19.273 17.3693 19.5618C17.5848 19.8506 17.6984 20.1785 17.7102 20.5455H16.858ZM21.4309 26.1136C20.9054 26.1136 20.452 25.9976 20.0708 25.7656C19.6921 25.5312 19.3997 25.2045 19.1937 24.7855C18.9901 24.3641 18.8883 23.8741 18.8883 23.3153C18.8883 22.7566 18.9901 22.2642 19.1937 21.8381C19.3997 21.4096 19.6861 21.0758 20.0531 20.8366C20.4224 20.5952 20.8533 20.4744 21.3457 20.4744C21.6298 20.4744 21.9103 20.5218 22.1873 20.6165C22.4643 20.7112 22.7164 20.8651 22.9437 21.0781C23.171 21.2888 23.3521 21.5682 23.487 21.9162C23.622 22.2642 23.6895 22.6927 23.6895 23.2017V23.5568H19.4849V22.8324H22.8372C22.8372 22.5246 22.7756 22.25 22.6525 22.0085C22.5318 21.767 22.359 21.5765 22.1341 21.4368C21.9115 21.2971 21.6487 21.2273 21.3457 21.2273C21.0119 21.2273 20.7231 21.3101 20.4792 21.4759C20.2377 21.6392 20.0519 21.8523 19.9217 22.1151C19.7915 22.3778 19.7264 22.6596 19.7264 22.9602V23.4432C19.7264 23.8551 19.7974 24.2043 19.9395 24.4908C20.0839 24.7749 20.2839 24.9915 20.5396 25.1406C20.7953 25.2874 21.0924 25.3608 21.4309 25.3608C21.6511 25.3608 21.85 25.33 22.0275 25.2685C22.2074 25.2045 22.3625 25.1098 22.4927 24.9844C22.6229 24.8565 22.7235 24.6979 22.7946 24.5085L23.6042 24.7358C23.519 25.0104 23.3758 25.2519 23.1745 25.4602C22.9733 25.6662 22.7247 25.8272 22.4288 25.9432C22.1329 26.0568 21.8002 26.1136 21.4309 26.1136ZM25.8024 18.7273V26H24.9643V18.7273H25.8024ZM29.6243 26.1136C29.0987 26.1136 28.6454 25.9976 28.2642 25.7656C27.8854 25.5312 27.593 25.2045 27.3871 24.7855C27.1835 24.3641 27.0817 23.8741 27.0817 23.3153C27.0817 22.7566 27.1835 22.2642 27.3871 21.8381C27.593 21.4096 27.8795 21.0758 28.2464 20.8366C28.6158 20.5952 29.0466 20.4744 29.5391 20.4744C29.8232 20.4744 30.1037 20.5218 30.3807 20.6165C30.6577 20.7112 30.9098 20.8651 31.1371 21.0781C31.3643 21.2888 31.5455 21.5682 31.6804 21.9162C31.8153 22.2642 31.8828 22.6927 31.8828 23.2017V23.5568H27.6783V22.8324H31.0305C31.0305 22.5246 30.969 22.25 30.8459 22.0085C30.7251 21.767 30.5523 21.5765 30.3274 21.4368C30.1049 21.2971 29.8421 21.2273 29.5391 21.2273C29.2053 21.2273 28.9164 21.3101 28.6726 21.4759C28.4311 21.6392 28.2453 21.8523 28.1151 22.1151C27.9848 22.3778 27.9197 22.6596 27.9197 22.9602V23.4432C27.9197 23.8551 27.9908 24.2043 28.1328 24.4908C28.2772 24.7749 28.4773 24.9915 28.733 25.1406C28.9886 25.2874 29.2857 25.3608 29.6243 25.3608C29.8445 25.3608 30.0433 25.33 30.2209 25.2685C30.4008 25.2045 30.5559 25.1098 30.6861 24.9844C30.8163 24.8565 30.9169 24.6979 30.9879 24.5085L31.7976 24.7358C31.7124 25.0104 31.5691 25.2519 31.3679 25.4602C31.1667 25.6662 30.9181 25.8272 30.6222 25.9432C30.3262 26.0568 29.9936 26.1136 29.6243 26.1136ZM35.3736 26.1136C34.8622 26.1136 34.4219 25.9929 34.0526 25.7514C33.6832 25.5099 33.3991 25.1773 33.2003 24.7536C33.0014 24.3298 32.902 23.8456 32.902 23.3011C32.902 22.7472 33.0038 22.2583 33.2074 21.8345C33.4134 21.4084 33.6998 21.0758 34.0668 20.8366C34.4361 20.5952 34.867 20.4744 35.3594 20.4744C35.7429 20.4744 36.0885 20.5455 36.3963 20.6875C36.7041 20.8295 36.9562 21.0284 37.1527 21.2841C37.3492 21.5398 37.4711 21.8381 37.5185 22.179H36.6804C36.6165 21.9304 36.4744 21.7102 36.2543 21.5185C36.0365 21.3243 35.7429 21.2273 35.3736 21.2273C35.0469 21.2273 34.7604 21.3125 34.5142 21.483C34.2704 21.651 34.0798 21.889 33.9425 22.1967C33.8075 22.5021 33.7401 22.8608 33.7401 23.2727C33.7401 23.6941 33.8063 24.0611 33.9389 24.3736C34.0739 24.6861 34.2633 24.9287 34.5071 25.1016C34.7533 25.2744 35.0421 25.3608 35.3736 25.3608C35.5914 25.3608 35.7891 25.3229 35.9666 25.2472C36.1442 25.1714 36.2945 25.0625 36.4176 24.9205C36.5407 24.7784 36.6283 24.608 36.6804 24.4091H37.5185C37.4711 24.7311 37.3539 25.0211 37.1669 25.2791C36.9822 25.5348 36.7372 25.7384 36.4318 25.8899C36.1288 26.0391 35.776 26.1136 35.3736 26.1136ZM41.1158 20.5455V21.2557H38.2891V20.5455H41.1158ZM39.1129 19.2386H39.951V24.4375C39.951 24.6742 39.9853 24.8518 40.054 24.9702C40.125 25.0862 40.215 25.1643 40.3239 25.2045C40.4351 25.2424 40.5523 25.2614 40.6754 25.2614C40.7678 25.2614 40.8435 25.2566 40.9027 25.2472C40.9619 25.2353 41.0092 25.2259 41.0447 25.2188L41.2152 25.9716C41.1584 25.9929 41.0791 26.0142 40.9773 26.0355C40.8755 26.0592 40.7464 26.071 40.5902 26.071C40.3535 26.071 40.1214 26.0201 39.8942 25.9183C39.6693 25.8165 39.4822 25.6615 39.3331 25.4531C39.1863 25.2448 39.1129 24.982 39.1129 24.6648V19.2386ZM49.0526 21.767L48.2997 21.9801C48.2524 21.8546 48.1825 21.7327 48.0902 21.6143C48.0002 21.4936 47.8771 21.3942 47.7209 21.3161C47.5646 21.2379 47.3646 21.1989 47.1207 21.1989C46.7869 21.1989 46.5088 21.2758 46.2862 21.4297C46.0661 21.5812 45.956 21.7741 45.956 22.0085C45.956 22.2169 46.0317 22.3814 46.1832 22.5021C46.3348 22.6229 46.5715 22.7235 46.8935 22.804L47.7031 23.0028C48.1908 23.1212 48.5542 23.3023 48.7933 23.5462C49.0324 23.7876 49.152 24.099 49.152 24.4801C49.152 24.7926 49.062 25.072 48.8821 25.3182C48.7045 25.5644 48.456 25.7585 48.1364 25.9006C47.8168 26.0426 47.4451 26.1136 47.0213 26.1136C46.465 26.1136 46.0045 25.9929 45.6399 25.7514C45.2753 25.5099 45.0445 25.1572 44.9474 24.6932L45.7429 24.4943C45.8187 24.7879 45.9619 25.008 46.1726 25.1548C46.3857 25.3016 46.6638 25.375 47.0071 25.375C47.3977 25.375 47.7079 25.2921 47.9375 25.1264C48.1695 24.9583 48.2855 24.7571 48.2855 24.5227C48.2855 24.3333 48.2192 24.1747 48.0866 24.0469C47.9541 23.9167 47.7505 23.8196 47.4759 23.7557L46.5668 23.5426C46.0672 23.4242 45.7003 23.2408 45.4659 22.9922C45.2339 22.7412 45.1179 22.4276 45.1179 22.0511C45.1179 21.7434 45.2043 21.4711 45.3771 21.2344C45.5523 20.9976 45.7902 20.8118 46.0909 20.6768C46.3939 20.5419 46.7372 20.4744 47.1207 20.4744C47.6605 20.4744 48.0843 20.5928 48.392 20.8295C48.7022 21.0663 48.9223 21.3788 49.0526 21.767ZM51.2516 18.7273V26H50.4135V18.7273H51.2516ZM55.0025 26.1136C54.5101 26.1136 54.078 25.9964 53.7063 25.7621C53.337 25.5277 53.0482 25.1998 52.8398 24.7784C52.6339 24.357 52.5309 23.8646 52.5309 23.3011C52.5309 22.733 52.6339 22.237 52.8398 21.8132C53.0482 21.3894 53.337 21.0604 53.7063 20.826C54.078 20.5916 54.5101 20.4744 55.0025 20.4744C55.4949 20.4744 55.9258 20.5916 56.2951 20.826C56.6668 21.0604 56.9556 21.3894 57.1616 21.8132C57.3699 22.237 57.4741 22.733 57.4741 23.3011C57.4741 23.8646 57.3699 24.357 57.1616 24.7784C56.9556 25.1998 56.6668 25.5277 56.2951 25.7621C55.9258 25.9964 55.4949 26.1136 55.0025 26.1136ZM55.0025 25.3608C55.3765 25.3608 55.6843 25.2649 55.9258 25.0732C56.1673 24.8814 56.346 24.6293 56.462 24.3168C56.578 24.0043 56.636 23.6657 56.636 23.3011C56.636 22.9366 56.578 22.5968 56.462 22.282C56.346 21.9671 56.1673 21.7126 55.9258 21.5185C55.6843 21.3243 55.3765 21.2273 55.0025 21.2273C54.6284 21.2273 54.3207 21.3243 54.0792 21.5185C53.8377 21.7126 53.659 21.9671 53.543 22.282C53.427 22.5968 53.369 22.9366 53.369 23.3011C53.369 23.6657 53.427 24.0043 53.543 24.3168C53.659 24.6293 53.8377 24.8814 54.0792 25.0732C54.3207 25.2649 54.6284 25.3608 55.0025 25.3608ZM61.1255 20.5455V21.2557H58.2988V20.5455H61.1255ZM59.1227 19.2386H59.9608V24.4375C59.9608 24.6742 59.9951 24.8518 60.0637 24.9702C60.1348 25.0862 60.2247 25.1643 60.3336 25.2045C60.4449 25.2424 60.5621 25.2614 60.6852 25.2614C60.7775 25.2614 60.8533 25.2566 60.9125 25.2472C60.9717 25.2353 61.019 25.2259 61.0545 25.2188L61.225 25.9716C61.1681 25.9929 61.0888 26.0142 60.987 26.0355C60.8852 26.0592 60.7562 26.071 60.6 26.071C60.3632 26.071 60.1312 26.0201 59.9039 25.9183C59.679 25.8165 59.492 25.6615 59.3429 25.4531C59.1961 25.2448 59.1227 24.982 59.1227 24.6648V19.2386Z" fill="#CFDEDB" fill-opacity="0.5"/>
<path d="M14.6477 126.182V132H13.9432V126.92H13.9091L12.4886 127.864V127.148L13.9432 126.182H14.6477ZM18.2188 132.08C17.7907 132.08 17.4261 131.963 17.125 131.73C16.8239 131.495 16.5938 131.155 16.4347 130.71C16.2756 130.263 16.196 129.723 16.196 129.091C16.196 128.462 16.2756 127.925 16.4347 127.48C16.5956 127.033 16.8267 126.692 17.1278 126.457C17.4309 126.221 17.7945 126.102 18.2188 126.102C18.643 126.102 19.0057 126.221 19.3068 126.457C19.6098 126.692 19.8409 127.033 20 127.48C20.161 127.925 20.2415 128.462 20.2415 129.091C20.2415 129.723 20.1619 130.263 20.0028 130.71C19.8438 131.155 19.6136 131.495 19.3125 131.73C19.0114 131.963 18.6468 132.08 18.2188 132.08ZM18.2188 131.455C18.643 131.455 18.9725 131.25 19.2074 130.841C19.4422 130.432 19.5597 129.848 19.5597 129.091C19.5597 128.587 19.5057 128.158 19.3977 127.804C19.2917 127.45 19.1383 127.18 18.9375 126.994C18.7386 126.809 18.4991 126.716 18.2188 126.716C17.7983 126.716 17.4697 126.923 17.233 127.338C16.9962 127.751 16.8778 128.335 16.8778 129.091C16.8778 129.595 16.9309 130.023 17.0369 130.375C17.143 130.727 17.2955 130.995 17.4943 131.179C17.6951 131.363 17.9366 131.455 18.2188 131.455ZM21.821 131.256C21.6809 131.256 21.5606 131.205 21.4602 131.105C21.3598 131.005 21.3097 130.884 21.3097 130.744C21.3097 130.604 21.3598 130.484 21.4602 130.384C21.5606 130.283 21.6809 130.233 21.821 130.233C21.9612 130.233 22.0814 130.283 22.1818 130.384C22.2822 130.484 22.3324 130.604 22.3324 130.744C22.3324 130.837 22.3087 130.922 22.2614 131C22.2159 131.078 22.1544 131.14 22.0767 131.188C22.0009 131.233 21.9157 131.256 21.821 131.256ZM21.821 128.312C21.6809 128.312 21.5606 128.262 21.4602 128.162C21.3598 128.062 21.3097 127.941 21.3097 127.801C21.3097 127.661 21.3598 127.541 21.4602 127.44C21.5606 127.34 21.6809 127.29 21.821 127.29C21.9612 127.29 22.0814 127.34 22.1818 127.44C22.2822 127.541 22.3324 127.661 22.3324 127.801C22.3324 127.894 22.3087 127.979 22.2614 128.057C22.2159 128.134 22.1544 128.197 22.0767 128.244C22.0009 128.29 21.9157 128.312 21.821 128.312ZM25.4219 132.08C24.9938 132.08 24.6293 131.963 24.3281 131.73C24.027 131.495 23.7969 131.155 23.6378 130.71C23.4787 130.263 23.3991 129.723 23.3991 129.091C23.3991 128.462 23.4787 127.925 23.6378 127.48C23.7988 127.033 24.0298 126.692 24.331 126.457C24.634 126.221 24.9976 126.102 25.4219 126.102C25.8461 126.102 26.2088 126.221 26.5099 126.457C26.813 126.692 27.044 127.033 27.2031 127.48C27.3641 127.925 27.4446 128.462 27.4446 129.091C27.4446 129.723 27.3651 130.263 27.206 130.71C27.0469 131.155 26.8168 131.495 26.5156 131.73C26.2145 131.963 25.8499 132.08 25.4219 132.08ZM25.4219 131.455C25.8461 131.455 26.1757 131.25 26.4105 130.841C26.6454 130.432 26.7628 129.848 26.7628 129.091C26.7628 128.587 26.7088 128.158 26.6009 127.804C26.4948 127.45 26.3414 127.18 26.1406 126.994C25.9418 126.809 25.7022 126.716 25.4219 126.716C25.0014 126.716 24.6728 126.923 24.4361 127.338C24.1993 127.751 24.081 128.335 24.081 129.091C24.081 129.595 24.134 130.023 24.2401 130.375C24.3461 130.727 24.4986 130.995 24.6974 131.179C24.8982 131.363 25.1397 131.455 25.4219 131.455ZM30.4219 132.08C29.9938 132.08 29.6293 131.963 29.3281 131.73C29.027 131.495 28.7969 131.155 28.6378 130.71C28.4787 130.263 28.3991 129.723 28.3991 129.091C28.3991 128.462 28.4787 127.925 28.6378 127.48C28.7988 127.033 29.0298 126.692 29.331 126.457C29.634 126.221 29.9976 126.102 30.4219 126.102C30.8461 126.102 31.2088 126.221 31.5099 126.457C31.813 126.692 32.044 127.033 32.2031 127.48C32.3641 127.925 32.4446 128.462 32.4446 129.091C32.4446 129.723 32.3651 130.263 32.206 130.71C32.0469 131.155 31.8168 131.495 31.5156 131.73C31.2145 131.963 30.8499 132.08 30.4219 132.08ZM30.4219 131.455C30.8461 131.455 31.1757 131.25 31.4105 130.841C31.6454 130.432 31.7628 129.848 31.7628 129.091C31.7628 128.587 31.7088 128.158 31.6009 127.804C31.4948 127.45 31.3414 127.18 31.1406 126.994C30.9418 126.809 30.7022 126.716 30.4219 126.716C30.0014 126.716 29.6728 126.923 29.4361 127.338C29.1993 127.751 29.081 128.335 29.081 129.091C29.081 129.595 29.134 130.023 29.2401 130.375C29.3461 130.727 29.4986 130.995 29.6974 131.179C29.8982 131.363 30.1397 131.455 30.4219 131.455Z" fill="#CFDEDB" fill-opacity="0.5"/>
<g style="mix-blend-mode:lighten">
<rect x="18" y="58" width="160" height="56" rx="8" fill="#151515"/>
<rect x="80" y="62" width="38" height="48" rx="8" fill="#2C2C2C"/>
<path d="M89.3551 97V95.8494L93.6761 91.1193C94.1832 90.5653 94.6009 90.0838 94.929 89.6747C95.2571 89.2614 95.5 88.8736 95.6577 88.5114C95.8196 88.1449 95.9006 87.7614 95.9006 87.3608C95.9006 86.9006 95.7898 86.5021 95.5682 86.1655C95.3509 85.8288 95.0526 85.5689 94.6733 85.3857C94.294 85.2024 93.8679 85.1108 93.3949 85.1108C92.892 85.1108 92.4531 85.2152 92.0781 85.424C91.7074 85.6286 91.4197 85.9162 91.2152 86.2869C91.0149 86.6577 90.9148 87.0923 90.9148 87.5909H89.4062C89.4062 86.8239 89.5831 86.1506 89.9368 85.571C90.2905 84.9915 90.772 84.5398 91.3814 84.2159C91.995 83.892 92.6832 83.7301 93.446 83.7301C94.2131 83.7301 94.8928 83.892 95.4851 84.2159C96.0774 84.5398 96.5419 84.9766 96.8786 85.5263C97.2152 86.076 97.3835 86.6875 97.3835 87.3608C97.3835 87.8423 97.2962 88.3132 97.1214 88.7734C96.951 89.2294 96.6527 89.7386 96.2266 90.3011C95.8047 90.8594 95.2188 91.5412 94.4688 92.3466L91.5284 95.4915V95.5938H97.6136V97H89.3551ZM104.344 97.179C103.594 97.179 102.919 97.0298 102.318 96.7315C101.717 96.4332 101.236 96.0241 100.874 95.5043C100.511 94.9844 100.313 94.392 100.279 93.7273H101.813C101.873 94.3196 102.141 94.8097 102.619 95.1974C103.1 95.581 103.675 95.7727 104.344 95.7727C104.881 95.7727 105.359 95.647 105.776 95.3956C106.198 95.1442 106.528 94.799 106.767 94.3601C107.01 93.9169 107.131 93.4162 107.131 92.858C107.131 92.2869 107.006 91.7777 106.754 91.3303C106.507 90.8786 106.166 90.5227 105.732 90.2628C105.297 90.0028 104.8 89.8707 104.242 89.8665C103.842 89.8622 103.43 89.924 103.009 90.0518C102.587 90.1754 102.239 90.3352 101.967 90.5312L100.484 90.3523L101.276 83.9091H108.077V85.3153H102.606L102.146 89.1761H102.222C102.491 88.9631 102.827 88.7862 103.232 88.6456C103.637 88.505 104.059 88.4347 104.498 88.4347C105.299 88.4347 106.013 88.6264 106.639 89.0099C107.27 89.3892 107.764 89.9091 108.122 90.5696C108.484 91.2301 108.665 91.9844 108.665 92.8324C108.665 93.6676 108.478 94.4134 108.103 95.0696C107.732 95.7216 107.221 96.2372 106.569 96.6165C105.917 96.9915 105.175 97.179 104.344 97.179Z" fill="#CFDEDB"/>
<path d="M48.3551 97V95.8494L52.6761 91.1193C53.1832 90.5653 53.6009 90.0838 53.929 89.6747C54.2571 89.2614 54.5 88.8736 54.6577 88.5114C54.8196 88.1449 54.9006 87.7614 54.9006 87.3608C54.9006 86.9006 54.7898 86.5021 54.5682 86.1655C54.3509 85.8288 54.0526 85.5689 53.6733 85.3857C53.294 85.2024 52.8679 85.1108 52.3949 85.1108C51.892 85.1108 51.4531 85.2152 51.0781 85.424C50.7074 85.6286 50.4197 85.9162 50.2152 86.2869C50.0149 86.6577 49.9148 87.0923 49.9148 87.5909H48.4062C48.4062 86.8239 48.5831 86.1506 48.9368 85.571C49.2905 84.9915 49.772 84.5398 50.3814 84.2159C50.995 83.892 51.6832 83.7301 52.446 83.7301C53.2131 83.7301 53.8928 83.892 54.4851 84.2159C55.0774 84.5398 55.5419 84.9766 55.8786 85.5263C56.2152 86.076 56.3835 86.6875 56.3835 87.3608C56.3835 87.8423 56.2962 88.3132 56.1214 88.7734C55.951 89.2294 55.6527 89.7386 55.2266 90.3011C54.8047 90.8594 54.2188 91.5412 53.4688 92.3466L50.5284 95.4915V95.5938H56.6136V97H48.3551ZM58.6655 94.3153V93.0114L64.4183 83.9091H65.3643V85.929H64.7251L60.3786 92.8068V92.9091H68.1257V94.3153H58.6655ZM64.8274 97V93.919V93.3118V83.9091H66.3359V97H64.8274Z" fill="#CFDEDB"/>
<path d="M131.355 97V95.8494L135.676 91.1193C136.183 90.5653 136.601 90.0838 136.929 89.6747C137.257 89.2614 137.5 88.8736 137.658 88.5114C137.82 88.1449 137.901 87.7614 137.901 87.3608C137.901 86.9006 137.79 86.5021 137.568 86.1655C137.351 85.8288 137.053 85.5689 136.673 85.3857C136.294 85.2024 135.868 85.1108 135.395 85.1108C134.892 85.1108 134.453 85.2152 134.078 85.424C133.707 85.6286 133.42 85.9162 133.215 86.2869C133.015 86.6577 132.915 87.0923 132.915 87.5909H131.406C131.406 86.8239 131.583 86.1506 131.937 85.571C132.29 84.9915 132.772 84.5398 133.381 84.2159C133.995 83.892 134.683 83.7301 135.446 83.7301C136.213 83.7301 136.893 83.892 137.485 84.2159C138.077 84.5398 138.542 84.9766 138.879 85.5263C139.215 86.076 139.384 86.6875 139.384 87.3608C139.384 87.8423 139.296 88.3132 139.121 88.7734C138.951 89.2294 138.653 89.7386 138.227 90.3011C137.805 90.8594 137.219 91.5412 136.469 92.3466L133.528 95.4915V95.5938H139.614V97H131.355ZM146.6 97.179C146.063 97.1705 145.526 97.0682 144.989 96.8722C144.452 96.6761 143.962 96.3459 143.519 95.8814C143.076 95.4126 142.72 94.7798 142.452 93.983C142.183 93.1818 142.049 92.1761 142.049 90.9659C142.049 89.8068 142.158 88.7798 142.375 87.8849C142.592 86.9858 142.908 86.2294 143.321 85.6158C143.734 84.9979 144.233 84.5291 144.817 84.2095C145.405 83.8899 146.067 83.7301 146.805 83.7301C147.538 83.7301 148.19 83.8771 148.761 84.1712C149.336 84.4609 149.805 84.8658 150.167 85.3857C150.529 85.9055 150.763 86.5043 150.87 87.1818H149.31C149.165 86.5937 148.884 86.1058 148.467 85.718C148.049 85.3303 147.495 85.1364 146.805 85.1364C145.79 85.1364 144.991 85.5774 144.408 86.4595C143.828 87.3416 143.536 88.5795 143.532 90.1733H143.634C143.873 89.8111 144.156 89.5021 144.484 89.2464C144.817 88.9865 145.183 88.7862 145.584 88.6456C145.984 88.505 146.408 88.4347 146.856 88.4347C147.606 88.4347 148.292 88.6222 148.914 88.9972C149.536 89.3679 150.035 89.8814 150.41 90.5376C150.785 91.1896 150.972 91.9375 150.972 92.7812C150.972 93.5909 150.791 94.3324 150.429 95.0057C150.067 95.6747 149.558 96.2074 148.901 96.6037C148.249 96.9957 147.482 97.1875 146.6 97.179ZM146.6 95.7727C147.137 95.7727 147.619 95.6385 148.045 95.37C148.475 95.1016 148.814 94.7415 149.061 94.2898C149.313 93.8381 149.438 93.3352 149.438 92.7812C149.438 92.2401 149.317 91.7479 149.074 91.3047C148.835 90.8572 148.505 90.5014 148.083 90.2372C147.665 89.973 147.188 89.8409 146.651 89.8409C146.246 89.8409 145.869 89.9219 145.52 90.0838C145.17 90.2415 144.864 90.4588 144.599 90.7358C144.339 91.0128 144.135 91.3303 143.986 91.6882C143.837 92.0419 143.762 92.4148 143.762 92.8068C143.762 93.3267 143.884 93.8125 144.126 94.2642C144.374 94.7159 144.71 95.0803 145.136 95.3572C145.567 95.6342 146.055 95.7727 146.6 95.7727Z" fill="#CFDEDB"/>
<path d="M91.4347 73.1577V72.4545H96.3438V73.1577H94.2855V79H93.4929V73.1577H91.4347ZM99.8905 76.9929V74.0909H100.645V79H99.8905V78.169H99.8394C99.7243 78.4183 99.5454 78.6303 99.3025 78.805C99.0596 78.9776 98.7528 79.0639 98.382 79.0639C98.0752 79.0639 97.8025 78.9968 97.5638 78.8626C97.3252 78.7262 97.1377 78.5217 97.0013 78.2489C96.865 77.9741 96.7968 77.6278 96.7968 77.2102V74.0909H97.551V77.1591C97.551 77.517 97.6512 77.8026 97.8515 78.0156C98.0539 78.2287 98.3117 78.3352 98.6249 78.3352C98.8124 78.3352 99.0031 78.2873 99.197 78.1914C99.393 78.0955 99.5571 77.9485 99.6892 77.7504C99.8234 77.5522 99.8905 77.2997 99.8905 76.9929ZM104.085 79.1023C103.612 79.1023 103.203 78.9979 102.86 78.7891C102.52 78.5781 102.256 78.2841 102.071 77.907C101.888 77.5277 101.796 77.0866 101.796 76.5838C101.796 76.081 101.888 75.6378 102.071 75.2543C102.256 74.8686 102.514 74.5682 102.844 74.353C103.177 74.1357 103.565 74.027 104.008 74.027C104.263 74.027 104.516 74.0696 104.765 74.1548C105.015 74.2401 105.241 74.3786 105.446 74.5703C105.651 74.7599 105.814 75.0114 105.935 75.3246C106.056 75.6378 106.117 76.0234 106.117 76.4815V76.8011H102.333V76.1491H105.35C105.35 75.8722 105.295 75.625 105.184 75.4077C105.075 75.1903 104.92 75.0188 104.717 74.8931C104.517 74.7674 104.281 74.7045 104.008 74.7045C103.707 74.7045 103.447 74.7791 103.228 74.9283C103.011 75.0753 102.843 75.267 102.726 75.5036C102.609 75.7401 102.55 75.9936 102.55 76.2642V76.6989C102.55 77.0696 102.614 77.3839 102.742 77.6417C102.872 77.8974 103.052 78.0923 103.282 78.2266C103.512 78.3587 103.78 78.4247 104.085 78.4247C104.283 78.4247 104.462 78.397 104.621 78.3416C104.783 78.2841 104.923 78.1989 105.04 78.0859C105.157 77.9709 105.248 77.8281 105.312 77.6577L106.04 77.8622C105.964 78.1094 105.835 78.3267 105.654 78.5142C105.473 78.6996 105.249 78.8445 104.983 78.9489C104.716 79.0511 104.417 79.1023 104.085 79.1023Z" fill="#CFDEDB" fill-opacity="0.5"/>
<path d="M49.7926 72.4545H50.7386L52.9631 77.8878H53.0398L55.2642 72.4545H56.2102V79H55.4688V74.027H55.4048L53.3594 79H52.6435L50.598 74.027H50.5341V79H49.7926V72.4545ZM59.6915 79.1023C59.2483 79.1023 58.8595 78.9968 58.5249 78.7859C58.1926 78.5749 57.9326 78.2798 57.7451 77.9006C57.5597 77.5213 57.4671 77.0781 57.4671 76.571C57.4671 76.0597 57.5597 75.6133 57.7451 75.2319C57.9326 74.8505 58.1926 74.5543 58.5249 74.3434C58.8595 74.1325 59.2483 74.027 59.6915 74.027C60.1347 74.027 60.5225 74.1325 60.8548 74.3434C61.1894 74.5543 61.4493 74.8505 61.6347 75.2319C61.8222 75.6133 61.9159 76.0597 61.9159 76.571C61.9159 77.0781 61.8222 77.5213 61.6347 77.9006C61.4493 78.2798 61.1894 78.5749 60.8548 78.7859C60.5225 78.9968 60.1347 79.1023 59.6915 79.1023ZM59.6915 78.4247C60.0281 78.4247 60.3051 78.3384 60.5225 78.1658C60.7398 77.9933 60.9007 77.7663 61.0051 77.4851C61.1095 77.2038 61.1617 76.8991 61.1617 76.571C61.1617 76.2429 61.1095 75.9371 61.0051 75.6538C60.9007 75.3704 60.7398 75.1413 60.5225 74.9666C60.3051 74.7919 60.0281 74.7045 59.6915 74.7045C59.3548 74.7045 59.0779 74.7919 58.8605 74.9666C58.6432 75.1413 58.4823 75.3704 58.3779 75.6538C58.2735 75.9371 58.2213 76.2429 58.2213 76.571C58.2213 76.8991 58.2735 77.2038 58.3779 77.4851C58.4823 77.7663 58.6432 77.9933 58.8605 78.1658C59.0779 78.3384 59.3548 78.4247 59.6915 78.4247ZM63.8216 76.0469V79H63.0673V74.0909H63.796V74.858H63.8599C63.975 74.6087 64.1497 74.4084 64.3841 74.2571C64.6184 74.1037 64.921 74.027 65.2917 74.027C65.6241 74.027 65.915 74.0952 66.1642 74.2315C66.4135 74.3658 66.6074 74.5703 66.7459 74.8452C66.8844 75.1179 66.9537 75.4631 66.9537 75.8807V79H66.1994V75.9318C66.1994 75.5462 66.0993 75.2457 65.899 75.0305C65.6987 74.8132 65.4238 74.7045 65.0744 74.7045C64.8336 74.7045 64.6184 74.7567 64.4288 74.8612C64.2413 74.9656 64.0932 75.1179 63.9846 75.3182C63.8759 75.5185 63.8216 75.7614 63.8216 76.0469Z" fill="#CFDEDB" fill-opacity="0.5"/>
<path d="M132.982 79L131.192 72.4545H131.997L133.365 77.7855H133.429L134.822 72.4545H135.717L137.111 77.7855H137.175L138.543 72.4545H139.348L137.558 79H136.74L135.295 73.7841H135.244L133.8 79H132.982ZM141.835 79.1023C141.362 79.1023 140.953 78.9979 140.61 78.7891C140.27 78.5781 140.006 78.2841 139.821 77.907C139.638 77.5277 139.546 77.0866 139.546 76.5838C139.546 76.081 139.638 75.6378 139.821 75.2543C140.006 74.8686 140.264 74.5682 140.594 74.353C140.927 74.1357 141.315 74.027 141.758 74.027C142.013 74.027 142.266 74.0696 142.515 74.1548C142.765 74.2401 142.991 74.3786 143.196 74.5703C143.401 74.7599 143.564 75.0114 143.685 75.3246C143.806 75.6378 143.867 76.0234 143.867 76.4815V76.8011H140.083V76.1491H143.1C143.1 75.8722 143.045 75.625 142.934 75.4077C142.825 75.1903 142.67 75.0188 142.467 74.8931C142.267 74.7674 142.031 74.7045 141.758 74.7045C141.457 74.7045 141.197 74.7791 140.978 74.9283C140.761 75.0753 140.593 75.267 140.476 75.5036C140.359 75.7401 140.3 75.9936 140.3 76.2642V76.6989C140.3 77.0696 140.364 77.3839 140.492 77.6417C140.622 77.8974 140.802 78.0923 141.032 78.2266C141.262 78.3587 141.53 78.4247 141.835 78.4247C142.033 78.4247 142.212 78.397 142.371 78.3416C142.533 78.2841 142.673 78.1989 142.79 78.0859C142.907 77.9709 142.998 77.8281 143.062 77.6577L143.79 77.8622C143.714 78.1094 143.585 78.3267 143.404 78.5142C143.223 78.6996 142.999 78.8445 142.733 78.9489C142.466 79.0511 142.167 79.1023 141.835 79.1023ZM146.868 79.1023C146.459 79.1023 146.098 78.9989 145.785 78.7923C145.472 78.5835 145.227 78.2894 145.05 77.9102C144.873 77.5288 144.784 77.0781 144.784 76.5582C144.784 76.0426 144.873 75.5952 145.05 75.2159C145.227 74.8366 145.473 74.5437 145.788 74.337C146.103 74.1303 146.468 74.027 146.881 74.027C147.201 74.027 147.453 74.0803 147.638 74.1868C147.826 74.2912 147.969 74.4105 148.067 74.5447C148.167 74.6768 148.245 74.7855 148.3 74.8707H148.364V72.4545H149.118V79H148.39V78.2457H148.3C148.245 78.3352 148.166 78.4482 148.064 78.5845C147.961 78.7187 147.815 78.8391 147.626 78.9457C147.436 79.0501 147.184 79.1023 146.868 79.1023ZM146.971 78.4247C147.273 78.4247 147.529 78.3459 147.738 78.1882C147.946 78.0284 148.105 77.8079 148.214 77.5266C148.322 77.2433 148.377 76.9162 148.377 76.5455C148.377 76.179 148.324 75.8583 148.217 75.5835C148.11 75.3065 147.953 75.0913 147.744 74.9379C147.535 74.7823 147.277 74.7045 146.971 74.7045C146.651 74.7045 146.385 74.7866 146.172 74.9506C145.961 75.1126 145.802 75.3331 145.695 75.6122C145.591 75.8892 145.539 76.2003 145.539 76.5455C145.539 76.8949 145.592 77.2124 145.699 77.4979C145.807 77.7812 145.967 78.0071 146.178 78.1754C146.391 78.3416 146.655 78.4247 146.971 78.4247Z" fill="#CFDEDB" fill-opacity="0.5"/>
<mask id="mask0_1_2" style="mask-type:alpha" maskUnits="userSpaceOnUse" x="164" y="81" width="12" height="12">
<rect x="164" y="81" width="12" height="12" fill="#D9D9D9"/>
</mask>
<g mask="url(#mask0_1_2)">
<path d="M168.012 92L167.125 91.1125L171.238 87L167.125 82.8875L168.012 82L173.012 87L168.012 92Z" fill="#CFDEDB" fill-opacity="0.5"/>
</g>
<mask id="mask1_1_2" style="mask-type:alpha" maskUnits="userSpaceOnUse" x="23" y="81" width="12" height="12">
<rect x="23" y="81" width="12" height="12" fill="#D9D9D9"/>
</mask>
<g mask="url(#mask1_1_2)">
<path d="M28 92L23 87L28 82L28.8875 82.8875L24.775 87L28.8875 91.1125L28 92Z" fill="#CFDEDB" fill-opacity="0.5"/>
</g>
</g>
<g style="mix-blend-mode:lighten">
<rect x="40" y="124" width="133" height="39" rx="8" fill="#CFDEDB"/>
<path d="M76.3097 140.727V148H75.429V141.651H75.3864L73.6108 142.83V141.935L75.429 140.727H76.3097ZM80.7734 148.099C80.2384 148.099 79.7827 147.954 79.4062 147.663C79.0298 147.369 78.7422 146.944 78.5433 146.388C78.3445 145.829 78.245 145.154 78.245 144.364C78.245 143.578 78.3445 142.906 78.5433 142.35C78.7446 141.791 79.0334 141.365 79.4098 141.072C79.7886 140.776 80.2431 140.628 80.7734 140.628C81.3037 140.628 81.7571 140.776 82.1335 141.072C82.5123 141.365 82.8011 141.791 83 142.35C83.2012 142.906 83.3018 143.578 83.3018 144.364C83.3018 145.154 83.2024 145.829 83.0036 146.388C82.8047 146.944 82.517 147.369 82.1406 147.663C81.7642 147.954 81.3085 148.099 80.7734 148.099ZM80.7734 147.318C81.3037 147.318 81.7157 147.062 82.0092 146.551C82.3028 146.04 82.4496 145.311 82.4496 144.364C82.4496 143.734 82.3821 143.198 82.2472 142.755C82.1146 142.312 81.9228 141.975 81.6719 141.743C81.4233 141.511 81.1238 141.395 80.7734 141.395C80.2479 141.395 79.8371 141.654 79.5412 142.173C79.2453 142.689 79.0973 143.419 79.0973 144.364C79.0973 144.993 79.1636 145.528 79.2962 145.969C79.4287 146.409 79.6193 146.744 79.8679 146.974C80.1188 147.203 80.4207 147.318 80.7734 147.318ZM85.2763 147.07C85.1011 147.07 84.9508 147.007 84.8253 146.881C84.6998 146.756 84.6371 146.606 84.6371 146.43C84.6371 146.255 84.6998 146.105 84.8253 145.979C84.9508 145.854 85.1011 145.791 85.2763 145.791C85.4515 145.791 85.6018 145.854 85.7273 145.979C85.8527 146.105 85.9155 146.255 85.9155 146.43C85.9155 146.546 85.8859 146.653 85.8267 146.75C85.7699 146.847 85.6929 146.925 85.5959 146.984C85.5012 147.041 85.3946 147.07 85.2763 147.07ZM85.2763 143.391C85.1011 143.391 84.9508 143.328 84.8253 143.202C84.6998 143.077 84.6371 142.927 84.6371 142.751C84.6371 142.576 84.6998 142.426 84.8253 142.3C84.9508 142.175 85.1011 142.112 85.2763 142.112C85.4515 142.112 85.6018 142.175 85.7273 142.3C85.8527 142.426 85.9155 142.576 85.9155 142.751C85.9155 142.867 85.8859 142.974 85.8267 143.071C85.7699 143.168 85.6929 143.246 85.5959 143.305C85.5012 143.362 85.3946 143.391 85.2763 143.391ZM89.7773 148.099C89.2423 148.099 88.7866 147.954 88.4102 147.663C88.0337 147.369 87.7461 146.944 87.5472 146.388C87.3484 145.829 87.2489 145.154 87.2489 144.364C87.2489 143.578 87.3484 142.906 87.5472 142.35C87.7485 141.791 88.0373 141.365 88.4137 141.072C88.7925 140.776 89.247 140.628 89.7773 140.628C90.3076 140.628 90.761 140.776 91.1374 141.072C91.5162 141.365 91.805 141.791 92.0039 142.35C92.2051 142.906 92.3058 143.578 92.3058 144.364C92.3058 145.154 92.2063 145.829 92.0075 146.388C91.8086 146.944 91.521 147.369 91.1445 147.663C90.7681 147.954 90.3124 148.099 89.7773 148.099ZM89.7773 147.318C90.3076 147.318 90.7196 147.062 91.0131 146.551C91.3067 146.04 91.4535 145.311 91.4535 144.364C91.4535 143.734 91.386 143.198 91.2511 142.755C91.1185 142.312 90.9267 141.975 90.6758 141.743C90.4272 141.511 90.1277 141.395 89.7773 141.395C89.2518 141.395 88.841 141.654 88.5451 142.173C88.2492 142.689 88.1012 143.419 88.1012 144.364C88.1012 144.993 88.1675 145.528 88.3001 145.969C88.4326 146.409 88.6232 146.744 88.8718 146.974C89.1228 147.203 89.4246 147.318 89.7773 147.318ZM96.0273 148.099C95.4923 148.099 95.0366 147.954 94.6602 147.663C94.2837 147.369 93.9961 146.944 93.7972 146.388C93.5984 145.829 93.4989 145.154 93.4989 144.364C93.4989 143.578 93.5984 142.906 93.7972 142.35C93.9985 141.791 94.2873 141.365 94.6637 141.072C95.0425 140.776 95.497 140.628 96.0273 140.628C96.5576 140.628 97.011 140.776 97.3874 141.072C97.7662 141.365 98.055 141.791 98.2539 142.35C98.4551 142.906 98.5558 143.578 98.5558 144.364C98.5558 145.154 98.4563 145.829 98.2575 146.388C98.0586 146.944 97.771 147.369 97.3945 147.663C97.0181 147.954 96.5624 148.099 96.0273 148.099ZM96.0273 147.318C96.5576 147.318 96.9696 147.062 97.2631 146.551C97.5567 146.04 97.7035 145.311 97.7035 144.364C97.7035 143.734 97.636 143.198 97.5011 142.755C97.3685 142.312 97.1767 141.975 96.9258 141.743C96.6772 141.511 96.3777 141.395 96.0273 141.395C95.5018 141.395 95.091 141.654 94.7951 142.173C94.4992 142.689 94.3512 143.419 94.3512 144.364C94.3512 144.993 94.4175 145.528 94.5501 145.969C94.6826 146.409 94.8732 146.744 95.1218 146.974C95.3728 147.203 95.6746 147.318 96.0273 147.318ZM105.857 143.973V144.754H102.675V143.973H105.857ZM112.687 140.727V148H111.806V141.651H111.763L109.988 142.83V141.935L111.806 140.727H112.687ZM117.335 140.727V148H116.454V141.651H116.412L114.636 142.83V141.935L116.454 140.727H117.335ZM120.052 147.07C119.876 147.07 119.726 147.007 119.601 146.881C119.475 146.756 119.412 146.606 119.412 146.43C119.412 146.255 119.475 146.105 119.601 145.979C119.726 145.854 119.876 145.791 120.052 145.791C120.227 145.791 120.377 145.854 120.503 145.979C120.628 146.105 120.691 146.255 120.691 146.43C120.691 146.546 120.661 146.653 120.602 146.75C120.545 146.847 120.468 146.925 120.371 146.984C120.277 147.041 120.17 147.07 120.052 147.07ZM120.052 143.391C119.876 143.391 119.726 143.328 119.601 143.202C119.475 143.077 119.412 142.927 119.412 142.751C119.412 142.576 119.475 142.426 119.601 142.3C119.726 142.175 119.876 142.112 120.052 142.112C120.227 142.112 120.377 142.175 120.503 142.3C120.628 142.426 120.691 142.576 120.691 142.751C120.691 142.867 120.661 142.974 120.602 143.071C120.545 143.168 120.468 143.246 120.371 143.305C120.277 143.362 120.17 143.391 120.052 143.391ZM124.553 148.099C124.018 148.099 123.562 147.954 123.186 147.663C122.809 147.369 122.521 146.944 122.323 146.388C122.124 145.829 122.024 145.154 122.024 144.364C122.024 143.578 122.124 142.906 122.323 142.35C122.524 141.791 122.813 141.365 123.189 141.072C123.568 140.776 124.022 140.628 124.553 140.628C125.083 140.628 125.536 140.776 125.913 141.072C126.292 141.365 126.58 141.791 126.779 142.35C126.981 142.906 127.081 143.578 127.081 144.364C127.081 145.154 126.982 145.829 126.783 146.388C126.584 146.944 126.296 147.369 125.92 147.663C125.544 147.954 125.088 148.099 124.553 148.099ZM124.553 147.318C125.083 147.318 125.495 147.062 125.789 146.551C126.082 146.04 126.229 145.311 126.229 144.364C126.229 143.734 126.161 143.198 126.026 142.755C125.894 142.312 125.702 141.975 125.451 141.743C125.203 141.511 124.903 141.395 124.553 141.395C124.027 141.395 123.616 141.654 123.32 142.173C123.025 142.689 122.877 143.419 122.877 144.364C122.877 144.993 122.943 145.528 123.075 145.969C123.208 146.409 123.399 146.744 123.647 146.974C123.898 147.203 124.2 147.318 124.553 147.318ZM130.803 148.099C130.268 148.099 129.812 147.954 129.436 147.663C129.059 147.369 128.771 146.944 128.573 146.388C128.374 145.829 128.274 145.154 128.274 144.364C128.274 143.578 128.374 142.906 128.573 142.35C128.774 141.791 129.063 141.365 129.439 141.072C129.818 140.776 130.272 140.628 130.803 140.628C131.333 140.628 131.786 140.776 132.163 141.072C132.542 141.365 132.83 141.791 133.029 142.35C133.231 142.906 133.331 143.578 133.331 144.364C133.331 145.154 133.232 145.829 133.033 146.388C132.834 146.944 132.546 147.369 132.17 147.663C131.794 147.954 131.338 148.099 130.803 148.099ZM130.803 147.318C131.333 147.318 131.745 147.062 132.039 146.551C132.332 146.04 132.479 145.311 132.479 144.364C132.479 143.734 132.411 143.198 132.276 142.755C132.144 142.312 131.952 141.975 131.701 141.743C131.453 141.511 131.153 141.395 130.803 141.395C130.277 141.395 129.866 141.654 129.57 142.173C129.275 142.689 129.127 143.419 129.127 144.364C129.127 144.993 129.193 145.528 129.325 145.969C129.458 146.409 129.649 146.744 129.897 146.974C130.148 147.203 130.45 147.318 130.803 147.318Z" fill="black" fill-opacity="0.8"/>
<mask id="mask2_1_2" style="mask-type:alpha" maskUnits="userSpaceOnUse" x="49" y="135" width="18" height="18">
<rect x="49" y="135" width="18" height="18" fill="#D9D9D9"/>
</mask>
<g mask="url(#mask2_1_2)">
<path d="M56.95 147.15L62.2375 141.862L61.1875 140.812L56.95 145.05L54.8125 142.913L53.7625 143.962L56.95 147.15ZM52.75 150.75C52.3375 150.75 51.9842 150.603 51.6902 150.31C51.3967 150.016 51.25 149.663 51.25 149.25V138.75C51.25 138.337 51.3967 137.984 51.6902 137.69C51.9842 137.397 52.3375 137.25 52.75 137.25H63.25C63.6625 137.25 64.0158 137.397 64.3098 137.69C64.6033 137.984 64.75 138.337 64.75 138.75V149.25C64.75 149.663 64.6033 150.016 64.3098 150.31C64.0158 150.603 63.6625 150.75 63.25 150.75H52.75ZM52.75 149.25H63.25V138.75H52.75V149.25Z" fill="#1C1B1F"/>
</g>
</g>
<path d="M15.6477 175.182V181H14.9432V175.92H14.9091L13.4886 176.864V176.148L14.9432 175.182H15.6477ZM19.3665 175.182V181H18.6619V175.92H18.6278L17.2074 176.864V176.148L18.6619 175.182H19.3665ZM21.5398 180.256C21.3996 180.256 21.2794 180.205 21.179 180.105C21.0786 180.005 21.0284 179.884 21.0284 179.744C21.0284 179.604 21.0786 179.484 21.179 179.384C21.2794 179.283 21.3996 179.233 21.5398 179.233C21.6799 179.233 21.8002 179.283 21.9006 179.384C22.0009 179.484 22.0511 179.604 22.0511 179.744C22.0511 179.837 22.0275 179.922 21.9801 180C21.9347 180.078 21.8731 180.14 21.7955 180.188C21.7197 180.233 21.6345 180.256 21.5398 180.256ZM21.5398 177.312C21.3996 177.312 21.2794 177.262 21.179 177.162C21.0786 177.062 21.0284 176.941 21.0284 176.801C21.0284 176.661 21.0786 176.541 21.179 176.44C21.2794 176.34 21.3996 176.29 21.5398 176.29C21.6799 176.29 21.8002 176.34 21.9006 176.44C22.0009 176.541 22.0511 176.661 22.0511 176.801C22.0511 176.894 22.0275 176.979 21.9801 177.057C21.9347 177.134 21.8731 177.197 21.7955 177.244C21.7197 177.29 21.6345 177.312 21.5398 177.312ZM25.1406 181.08C24.7126 181.08 24.348 180.963 24.0469 180.73C23.7457 180.495 23.5156 180.155 23.3565 179.71C23.1974 179.263 23.1179 178.723 23.1179 178.091C23.1179 177.462 23.1974 176.925 23.3565 176.48C23.5175 176.033 23.7486 175.692 24.0497 175.457C24.3527 175.221 24.7164 175.102 25.1406 175.102C25.5649 175.102 25.9276 175.221 26.2287 175.457C26.5317 175.692 26.7628 176.033 26.9219 176.48C27.0829 176.925 27.1634 177.462 27.1634 178.091C27.1634 178.723 27.0838 179.263 26.9247 179.71C26.7656 180.155 26.5355 180.495 26.2344 180.73C25.9332 180.963 25.5687 181.08 25.1406 181.08ZM25.1406 180.455C25.5649 180.455 25.8944 180.25 26.1293 179.841C26.3641 179.432 26.4815 178.848 26.4815 178.091C26.4815 177.587 26.4276 177.158 26.3196 176.804C26.2135 176.45 26.0601 176.18 25.8594 175.994C25.6605 175.809 25.4209 175.716 25.1406 175.716C24.7202 175.716 24.3916 175.923 24.1548 176.338C23.9181 176.751 23.7997 177.335 23.7997 178.091C23.7997 178.595 23.8527 179.023 23.9588 179.375C24.0649 179.727 24.2173 179.995 24.4162 180.179C24.617 180.363 24.8584 180.455 25.1406 180.455ZM30.1406 181.08C29.7126 181.08 29.348 180.963 29.0469 180.73C28.7457 180.495 28.5156 180.155 28.3565 179.71C28.1974 179.263 28.1179 178.723 28.1179 178.091C28.1179 177.462 28.1974 176.925 28.3565 176.48C28.5175 176.033 28.7486 175.692 29.0497 175.457C29.3527 175.221 29.7164 175.102 30.1406 175.102C30.5649 175.102 30.9276 175.221 31.2287 175.457C31.5317 175.692 31.7628 176.033 31.9219 176.48C32.0829 176.925 32.1634 177.462 32.1634 178.091C32.1634 178.723 32.0838 179.263 31.9247 179.71C31.7656 180.155 31.5355 180.495 31.2344 180.73C30.9332 180.963 30.5687 181.08 30.1406 181.08ZM30.1406 180.455C30.5649 180.455 30.8944 180.25 31.1293 179.841C31.3641 179.432 31.4815 178.848 31.4815 178.091C31.4815 177.587 31.4276 177.158 31.3196 176.804C31.2135 176.45 31.0601 176.18 30.8594 175.994C30.6605 175.809 30.4209 175.716 30.1406 175.716C29.7202 175.716 29.3916 175.923 29.1548 176.338C28.9181 176.751 28.7997 177.335 28.7997 178.091C28.7997 178.595 28.8527 179.023 28.9588 179.375C29.0649 179.727 29.2173 179.995 29.4162 180.179C29.617 180.363 29.8584 180.455 30.1406 180.455Z" fill="#CFDEDB" fill-opacity="0.5"/>
<g style="mix-blend-mode:lighten">
<rect x="40" y="173" width="133" height="39" rx="8" fill="#151515"/>
<path d="M76.3097 189.727V197H75.429V190.651H75.3864L73.6108 191.83V190.935L75.429 189.727H76.3097ZM80.9581 189.727V197H80.0774V190.651H80.0348L78.2592 191.83V190.935L80.0774 189.727H80.9581ZM83.6747 196.07C83.4995 196.07 83.3492 196.007 83.2237 195.881C83.0982 195.756 83.0355 195.606 83.0355 195.43C83.0355 195.255 83.0982 195.105 83.2237 194.979C83.3492 194.854 83.4995 194.791 83.6747 194.791C83.8499 194.791 84.0002 194.854 84.1257 194.979C84.2512 195.105 84.3139 195.255 84.3139 195.43C84.3139 195.546 84.2843 195.653 84.2251 195.75C84.1683 195.847 84.0914 195.925 83.9943 195.984C83.8996 196.041 83.7931 196.07 83.6747 196.07ZM83.6747 192.391C83.4995 192.391 83.3492 192.328 83.2237 192.202C83.0982 192.077 83.0355 191.927 83.0355 191.751C83.0355 191.576 83.0982 191.426 83.2237 191.3C83.3492 191.175 83.4995 191.112 83.6747 191.112C83.8499 191.112 84.0002 191.175 84.1257 191.3C84.2512 191.426 84.3139 191.576 84.3139 191.751C84.3139 191.867 84.2843 191.974 84.2251 192.071C84.1683 192.168 84.0914 192.246 83.9943 192.305C83.8996 192.362 83.7931 192.391 83.6747 192.391ZM88.1758 197.099C87.6407 197.099 87.185 196.954 86.8086 196.663C86.4322 196.369 86.1445 195.944 85.9457 195.388C85.7468 194.829 85.6474 194.154 85.6474 193.364C85.6474 192.578 85.7468 191.906 85.9457 191.35C86.1469 190.791 86.4357 190.365 86.8121 190.072C87.1909 189.776 87.6455 189.628 88.1758 189.628C88.7061 189.628 89.1594 189.776 89.5359 190.072C89.9147 190.365 90.2035 190.791 90.4023 191.35C90.6036 191.906 90.7042 192.578 90.7042 193.364C90.7042 194.154 90.6048 194.829 90.4059 195.388C90.207 195.944 89.9194 196.369 89.543 196.663C89.1665 196.954 88.7108 197.099 88.1758 197.099ZM88.1758 196.318C88.7061 196.318 89.118 196.062 89.4116 195.551C89.7051 195.04 89.8519 194.311 89.8519 193.364C89.8519 192.734 89.7844 192.198 89.6495 191.755C89.5169 191.312 89.3252 190.975 89.0742 190.743C88.8256 190.511 88.5262 190.395 88.1758 190.395C87.6502 190.395 87.2395 190.654 86.9435 191.173C86.6476 191.689 86.4996 192.419 86.4996 193.364C86.4996 193.993 86.5659 194.528 86.6985 194.969C86.8311 195.409 87.0217 195.744 87.2702 195.974C87.5212 196.203 87.823 196.318 88.1758 196.318ZM94.4258 197.099C93.8907 197.099 93.435 196.954 93.0586 196.663C92.6822 196.369 92.3945 195.944 92.1957 195.388C91.9968 194.829 91.8974 194.154 91.8974 193.364C91.8974 192.578 91.9968 191.906 92.1957 191.35C92.3969 190.791 92.6857 190.365 93.0621 190.072C93.4409 189.776 93.8955 189.628 94.4258 189.628C94.9561 189.628 95.4094 189.776 95.7859 190.072C96.1647 190.365 96.4535 190.791 96.6523 191.35C96.8536 191.906 96.9542 192.578 96.9542 193.364C96.9542 194.154 96.8548 194.829 96.6559 195.388C96.457 195.944 96.1694 196.369 95.793 196.663C95.4165 196.954 94.9608 197.099 94.4258 197.099ZM94.4258 196.318C94.9561 196.318 95.368 196.062 95.6616 195.551C95.9551 195.04 96.1019 194.311 96.1019 193.364C96.1019 192.734 96.0344 192.198 95.8995 191.755C95.7669 191.312 95.5752 190.975 95.3242 190.743C95.0756 190.511 94.7762 190.395 94.4258 190.395C93.9002 190.395 93.4895 190.654 93.1935 191.173C92.8976 191.689 92.7496 192.419 92.7496 193.364C92.7496 193.993 92.8159 194.528 92.9485 194.969C93.0811 195.409 93.2717 195.744 93.5202 195.974C93.7712 196.203 94.073 196.318 94.4258 196.318ZM104.255 192.973V193.754H101.074V192.973H104.255ZM111.085 189.727V197H110.204V190.651H110.162L108.386 191.83V190.935L110.204 189.727H111.085ZM113.177 197V196.361L115.577 193.733C115.859 193.425 116.091 193.158 116.273 192.93C116.456 192.701 116.59 192.485 116.678 192.284C116.768 192.08 116.813 191.867 116.813 191.645C116.813 191.389 116.751 191.168 116.628 190.981C116.508 190.794 116.342 190.649 116.131 190.548C115.921 190.446 115.684 190.395 115.421 190.395C115.142 190.395 114.898 190.453 114.689 190.569C114.483 190.683 114.324 190.842 114.21 191.048C114.099 191.254 114.043 191.496 114.043 191.773H113.205C113.205 191.347 113.303 190.973 113.5 190.651C113.696 190.329 113.964 190.078 114.302 189.898C114.643 189.718 115.026 189.628 115.449 189.628C115.876 189.628 116.253 189.718 116.582 189.898C116.911 190.078 117.169 190.32 117.356 190.626C117.543 190.931 117.637 191.271 117.637 191.645C117.637 191.912 117.588 192.174 117.491 192.43C117.397 192.683 117.231 192.966 116.994 193.278C116.76 193.589 116.434 193.967 116.018 194.415L114.384 196.162V196.219H117.765V197H113.177ZM119.856 196.07C119.681 196.07 119.531 196.007 119.405 195.881C119.28 195.756 119.217 195.606 119.217 195.43C119.217 195.255 119.28 195.105 119.405 194.979C119.531 194.854 119.681 194.791 119.856 194.791C120.032 194.791 120.182 194.854 120.307 194.979C120.433 195.105 120.496 195.255 120.496 195.43C120.496 195.546 120.466 195.653 120.407 195.75C120.35 195.847 120.273 195.925 120.176 195.984C120.081 196.041 119.975 196.07 119.856 196.07ZM119.856 192.391C119.681 192.391 119.531 192.328 119.405 192.202C119.28 192.077 119.217 191.927 119.217 191.751C119.217 191.576 119.28 191.426 119.405 191.3C119.531 191.175 119.681 191.112 119.856 191.112C120.032 191.112 120.182 191.175 120.307 191.3C120.433 191.426 120.496 191.576 120.496 191.751C120.496 191.867 120.466 191.974 120.407 192.071C120.35 192.168 120.273 192.246 120.176 192.305C120.081 192.362 119.975 192.391 119.856 192.391ZM124.357 197.099C123.822 197.099 123.367 196.954 122.99 196.663C122.614 196.369 122.326 195.944 122.127 195.388C121.928 194.829 121.829 194.154 121.829 193.364C121.829 192.578 121.928 191.906 122.127 191.35C122.329 190.791 122.617 190.365 122.994 190.072C123.373 189.776 123.827 189.628 124.357 189.628C124.888 189.628 125.341 189.776 125.718 190.072C126.096 190.365 126.385 190.791 126.584 191.35C126.785 191.906 126.886 192.578 126.886 193.364C126.886 194.154 126.786 194.829 126.588 195.388C126.389 195.944 126.101 196.369 125.725 196.663C125.348 196.954 124.892 197.099 124.357 197.099ZM124.357 196.318C124.888 196.318 125.3 196.062 125.593 195.551C125.887 195.04 126.034 194.311 126.034 193.364C126.034 192.734 125.966 192.198 125.831 191.755C125.699 191.312 125.507 190.975 125.256 190.743C125.007 190.511 124.708 190.395 124.357 190.395C123.832 190.395 123.421 190.654 123.125 191.173C122.829 191.689 122.681 192.419 122.681 193.364C122.681 193.993 122.748 194.528 122.88 194.969C123.013 195.409 123.203 195.744 123.452 195.974C123.703 196.203 124.005 196.318 124.357 196.318ZM130.607 197.099C130.072 197.099 129.617 196.954 129.24 196.663C128.864 196.369 128.576 195.944 128.377 195.388C128.178 194.829 128.079 194.154 128.079 193.364C128.079 192.578 128.178 191.906 128.377 191.35C128.579 190.791 128.867 190.365 129.244 190.072C129.623 189.776 130.077 189.628 130.607 189.628C131.138 189.628 131.591 189.776 131.968 190.072C132.346 190.365 132.635 190.791 132.834 191.35C133.035 191.906 133.136 192.578 133.136 193.364C133.136 194.154 133.036 194.829 132.838 195.388C132.639 195.944 132.351 196.369 131.975 196.663C131.598 196.954 131.142 197.099 130.607 197.099ZM130.607 196.318C131.138 196.318 131.55 196.062 131.843 195.551C132.137 195.04 132.284 194.311 132.284 193.364C132.284 192.734 132.216 192.198 132.081 191.755C131.949 191.312 131.757 190.975 131.506 190.743C131.257 190.511 130.958 190.395 130.607 190.395C130.082 190.395 129.671 190.654 129.375 191.173C129.079 191.689 128.931 192.419 128.931 193.364C128.931 193.993 128.998 194.528 129.13 194.969C129.263 195.409 129.453 195.744 129.702 195.974C129.953 196.203 130.255 196.318 130.607 196.318Z" fill="#CFDEDB" fill-opacity="0.8"/>
<mask id="mask3_1_2" style="mask-type:alpha" maskUnits="userSpaceOnUse" x="49" y="184" width="18" height="18">
<rect x="49" y="184" width="18" height="18" fill="#D9D9D9"/>
</mask>
<g mask="url(#mask3_1_2)">
<path d="M52.4688 199.75C52.0653 199.75 51.7199 199.603 51.4324 199.31C51.1454 199.016 51.0018 198.663 51.0018 198.25V187.75C51.0018 187.337 51.1454 186.984 51.4324 186.69C51.7199 186.397 52.0653 186.25 52.4688 186.25H62.7371C63.1405 186.25 63.486 186.397 63.7735 186.69C64.0605 186.984 64.204 187.337 64.204 187.75V198.25C64.204 198.663 64.0605 199.016 63.7735 199.31C63.486 199.603 63.1405 199.75 62.7371 199.75H52.4688ZM52.4688 198.25H62.7371V187.75H52.4688V198.25Z" fill="#CFDEDB"/>
</g>
</g>
<path d="M15.6477 224.182V230H14.9432V224.92H14.9091L13.4886 225.864V225.148L14.9432 224.182H15.6477ZM17.321 230V229.489L19.2415 227.386C19.4669 227.14 19.6525 226.926 19.7983 226.744C19.9441 226.561 20.0521 226.388 20.1222 226.227C20.1941 226.064 20.2301 225.894 20.2301 225.716C20.2301 225.511 20.1809 225.334 20.0824 225.185C19.9858 225.035 19.8532 224.92 19.6847 224.838C19.5161 224.757 19.3267 224.716 19.1165 224.716C18.893 224.716 18.6979 224.762 18.5312 224.855C18.3665 224.946 18.2386 225.074 18.1477 225.239C18.0587 225.403 18.0142 225.597 18.0142 225.818H17.3438C17.3438 225.477 17.4223 225.178 17.5795 224.92C17.7367 224.663 17.9508 224.462 18.2216 224.318C18.4943 224.174 18.8002 224.102 19.1392 224.102C19.4801 224.102 19.7822 224.174 20.0455 224.318C20.3087 224.462 20.5152 224.656 20.6648 224.901C20.8144 225.145 20.8892 225.417 20.8892 225.716C20.8892 225.93 20.8504 226.139 20.7727 226.344C20.697 226.546 20.5644 226.773 20.375 227.023C20.1875 227.271 19.9271 227.574 19.5938 227.932L18.2869 229.33V229.375H20.9915V230H17.321ZM22.6648 229.256C22.5246 229.256 22.4044 229.205 22.304 229.105C22.2036 229.005 22.1534 228.884 22.1534 228.744C22.1534 228.604 22.2036 228.484 22.304 228.384C22.4044 228.283 22.5246 228.233 22.6648 228.233C22.8049 228.233 22.9252 228.283 23.0256 228.384C23.1259 228.484 23.1761 228.604 23.1761 228.744C23.1761 228.837 23.1525 228.922 23.1051 229C23.0597 229.078 22.9981 229.14 22.9205 229.188C22.8447 229.233 22.7595 229.256 22.6648 229.256ZM22.6648 226.312C22.5246 226.312 22.4044 226.262 22.304 226.162C22.2036 226.062 22.1534 225.941 22.1534 225.801C22.1534 225.661 22.2036 225.541 22.304 225.44C22.4044 225.34 22.5246 225.29 22.6648 225.29C22.8049 225.29 22.9252 225.34 23.0256 225.44C23.1259 225.541 23.1761 225.661 23.1761 225.801C23.1761 225.894 23.1525 225.979 23.1051 226.057C23.0597 226.134 22.9981 226.197 22.9205 226.244C22.8447 226.29 22.7595 226.312 22.6648 226.312ZM26.2656 230.08C25.8376 230.08 25.473 229.963 25.1719 229.73C24.8707 229.495 24.6406 229.155 24.4815 228.71C24.3224 228.263 24.2429 227.723 24.2429 227.091C24.2429 226.462 24.3224 225.925 24.4815 225.48C24.6425 225.033 24.8736 224.692 25.1747 224.457C25.4777 224.221 25.8414 224.102 26.2656 224.102C26.6899 224.102 27.0526 224.221 27.3537 224.457C27.6567 224.692 27.8878 225.033 28.0469 225.48C28.2079 225.925 28.2884 226.462 28.2884 227.091C28.2884 227.723 28.2088 228.263 28.0497 228.71C27.8906 229.155 27.6605 229.495 27.3594 229.73C27.0582 229.963 26.6937 230.08 26.2656 230.08ZM26.2656 229.455C26.6899 229.455 27.0194 229.25 27.2543 228.841C27.4891 228.432 27.6065 227.848 27.6065 227.091C27.6065 226.587 27.5526 226.158 27.4446 225.804C27.3385 225.45 27.1851 225.18 26.9844 224.994C26.7855 224.809 26.5459 224.716 26.2656 224.716C25.8452 224.716 25.5166 224.923 25.2798 225.338C25.0431 225.751 24.9247 226.335 24.9247 227.091C24.9247 227.595 24.9777 228.023 25.0838 228.375C25.1899 228.727 25.3423 228.995 25.5412 229.179C25.742 229.363 25.9834 229.455 26.2656 229.455ZM31.2656 230.08C30.8376 230.08 30.473 229.963 30.1719 229.73C29.8707 229.495 29.6406 229.155 29.4815 228.71C29.3224 228.263 29.2429 227.723 29.2429 227.091C29.2429 226.462 29.3224 225.925 29.4815 225.48C29.6425 225.033 29.8736 224.692 30.1747 224.457C30.4777 224.221 30.8414 224.102 31.2656 224.102C31.6899 224.102 32.0526 224.221 32.3537 224.457C32.6567 224.692 32.8878 225.033 33.0469 225.48C33.2079 225.925 33.2884 226.462 33.2884 227.091C33.2884 227.723 33.2088 228.263 33.0497 228.71C32.8906 229.155 32.6605 229.495 32.3594 229.73C32.0582 229.963 31.6937 230.08 31.2656 230.08ZM31.2656 229.455C31.6899 229.455 32.0194 229.25 32.2543 228.841C32.4891 228.432 32.6065 227.848 32.6065 227.091C32.6065 226.587 32.5526 226.158 32.4446 225.804C32.3385 225.45 32.1851 225.18 31.9844 224.994C31.7855 224.809 31.5459 224.716 31.2656 224.716C30.8452 224.716 30.5166 224.923 30.2798 225.338C30.0431 225.751 29.9247 226.335 29.9247 227.091C29.9247 227.595 29.9777 228.023 30.0838 228.375C30.1899 228.727 30.3423 228.995 30.5412 229.179C30.742 229.363 30.9834 229.455 31.2656 229.455Z" fill="#CFDEDB" fill-opacity="0.5"/>
<g style="mix-blend-mode:lighten">
<rect x="40" y="223" width="133" height="39" rx="8" fill="#151515"/>
<path d="M74.179 247H73.2557L75.9261 239.727H76.8352L79.5057 247H78.5824L76.4091 240.878H76.3523L74.179 247ZM74.5199 244.159H78.2415V244.94H74.5199V244.159ZM82.5845 247.114C82.13 247.114 81.7287 246.999 81.3807 246.769C81.0327 246.537 80.7604 246.21 80.5639 245.789C80.3674 245.365 80.2692 244.865 80.2692 244.287C80.2692 243.714 80.3674 243.217 80.5639 242.795C80.7604 242.374 81.0339 242.049 81.3842 241.819C81.7346 241.589 82.1394 241.474 82.5987 241.474C82.9538 241.474 83.2344 241.534 83.4403 241.652C83.6487 241.768 83.8073 241.901 83.9162 242.05C84.0275 242.196 84.1139 242.317 84.1754 242.412H84.2464V239.727H85.0845V247H84.2749V246.162H84.1754C84.1139 246.261 84.0263 246.387 83.9126 246.538C83.799 246.687 83.6368 246.821 83.4261 246.94C83.2154 247.056 82.9349 247.114 82.5845 247.114ZM82.6982 246.361C83.0343 246.361 83.3184 246.273 83.5504 246.098C83.7824 245.92 83.9588 245.675 84.0795 245.363C84.2003 245.048 84.2607 244.685 84.2607 244.273C84.2607 243.866 84.2015 243.509 84.0831 243.204C83.9647 242.896 83.7895 242.657 83.5575 242.487C83.3255 242.314 83.0391 242.227 82.6982 242.227C82.343 242.227 82.0471 242.318 81.8104 242.501C81.576 242.681 81.3996 242.926 81.2812 243.236C81.1652 243.544 81.1072 243.889 81.1072 244.273C81.1072 244.661 81.1664 245.014 81.2848 245.331C81.4055 245.646 81.5831 245.897 81.8175 246.084C82.0542 246.268 82.3478 246.361 82.6982 246.361ZM88.7955 247.114C88.3409 247.114 87.9396 246.999 87.5916 246.769C87.2436 246.537 86.9714 246.21 86.7749 245.789C86.5784 245.365 86.4801 244.865 86.4801 244.287C86.4801 243.714 86.5784 243.217 86.7749 242.795C86.9714 242.374 87.2448 242.049 87.5952 241.819C87.9455 241.589 88.3504 241.474 88.8097 241.474C89.1648 241.474 89.4453 241.534 89.6513 241.652C89.8596 241.768 90.0182 241.901 90.1271 242.05C90.2384 242.196 90.3248 242.317 90.3864 242.412H90.4574V239.727H91.2955V247H90.4858V246.162H90.3864C90.3248 246.261 90.2372 246.387 90.1236 246.538C90.0099 246.687 89.8478 246.821 89.6371 246.94C89.4264 247.056 89.1458 247.114 88.7955 247.114ZM88.9091 246.361C89.2453 246.361 89.5294 246.273 89.7614 246.098C89.9934 245.92 90.1697 245.675 90.2905 245.363C90.4112 245.048 90.4716 244.685 90.4716 244.273C90.4716 243.866 90.4124 243.509 90.294 243.204C90.1757 242.896 90.0005 242.657 89.7685 242.487C89.5365 242.314 89.25 242.227 88.9091 242.227C88.554 242.227 88.258 242.318 88.0213 242.501C87.7869 242.681 87.6106 242.926 87.4922 243.236C87.3762 243.544 87.3182 243.889 87.3182 244.273C87.3182 244.661 87.3774 245.014 87.4957 245.331C87.6165 245.646 87.794 245.897 88.0284 246.084C88.2652 246.268 88.5587 246.361 88.9091 246.361ZM96.5973 243.719V247H95.7592V241.545H96.5689V242.398H96.6399C96.7678 242.121 96.9619 241.898 97.2223 241.73C97.4827 241.56 97.8189 241.474 98.2308 241.474C98.6001 241.474 98.9233 241.55 99.2003 241.702C99.4773 241.851 99.6927 242.078 99.8466 242.384C100 242.687 100.077 243.07 100.077 243.534V247H99.2393V243.591C99.2393 243.162 99.1281 242.829 98.9055 242.589C98.683 242.348 98.3776 242.227 97.9893 242.227C97.7218 242.227 97.4827 242.285 97.272 242.401C97.0637 242.517 96.8991 242.687 96.7784 242.909C96.6577 243.132 96.5973 243.402 96.5973 243.719ZM103.896 247.114C103.37 247.114 102.917 246.998 102.536 246.766C102.157 246.531 101.865 246.205 101.659 245.786C101.455 245.364 101.353 244.874 101.353 244.315C101.353 243.757 101.455 243.264 101.659 242.838C101.865 242.41 102.151 242.076 102.518 241.837C102.887 241.595 103.318 241.474 103.811 241.474C104.095 241.474 104.375 241.522 104.652 241.616C104.929 241.711 105.181 241.865 105.409 242.078C105.636 242.289 105.817 242.568 105.952 242.916C106.087 243.264 106.154 243.693 106.154 244.202V244.557H101.95V243.832H105.302C105.302 243.525 105.24 243.25 105.117 243.009C104.997 242.767 104.824 242.576 104.599 242.437C104.376 242.297 104.114 242.227 103.811 242.227C103.477 242.227 103.188 242.31 102.944 242.476C102.703 242.639 102.517 242.852 102.387 243.115C102.256 243.378 102.191 243.66 102.191 243.96V244.443C102.191 244.855 102.262 245.204 102.404 245.491C102.549 245.775 102.749 245.991 103.004 246.141C103.26 246.287 103.557 246.361 103.896 246.361C104.116 246.361 104.315 246.33 104.492 246.268C104.672 246.205 104.827 246.11 104.958 245.984C105.088 245.857 105.188 245.698 105.259 245.509L106.069 245.736C105.984 246.01 105.841 246.252 105.639 246.46C105.438 246.666 105.19 246.827 104.894 246.943C104.598 247.057 104.265 247.114 103.896 247.114ZM108.665 247L107.003 241.545H107.884L109.063 245.722H109.119L110.284 241.545H111.179L112.33 245.707H112.387L113.566 241.545H114.446L112.784 247H111.96L110.767 242.81H110.682L109.489 247H108.665ZM120.654 247.114C120.128 247.114 119.675 246.998 119.294 246.766C118.915 246.531 118.622 246.205 118.416 245.786C118.213 245.364 118.111 244.874 118.111 244.315C118.111 243.757 118.213 243.264 118.416 242.838C118.622 242.41 118.909 242.076 119.276 241.837C119.645 241.595 120.076 241.474 120.568 241.474C120.852 241.474 121.133 241.522 121.41 241.616C121.687 241.711 121.939 241.865 122.166 242.078C122.394 242.289 122.575 242.568 122.71 242.916C122.845 243.264 122.912 243.693 122.912 244.202V244.557H118.708V243.832H122.06C122.06 243.525 121.998 243.25 121.875 243.009C121.754 242.767 121.582 242.576 121.357 242.437C121.134 242.297 120.871 242.227 120.568 242.227C120.235 242.227 119.946 242.31 119.702 242.476C119.46 242.639 119.275 242.852 119.144 243.115C119.014 243.378 118.949 243.66 118.949 243.96V244.443C118.949 244.855 119.02 245.204 119.162 245.491C119.307 245.775 119.507 245.991 119.762 246.141C120.018 246.287 120.315 246.361 120.654 246.361C120.874 246.361 121.073 246.33 121.25 246.268C121.43 246.205 121.585 246.11 121.715 245.984C121.846 245.857 121.946 245.698 122.017 245.509L122.827 245.736C122.742 246.01 122.598 246.252 122.397 246.46C122.196 246.666 121.947 246.827 121.651 246.943C121.356 247.057 121.023 247.114 120.654 247.114ZM128.481 241.545L126.464 247H125.612L123.595 241.545H124.504L126.01 245.892H126.066L127.572 241.545H128.481ZM131.679 247.114C131.153 247.114 130.7 246.998 130.319 246.766C129.94 246.531 129.648 246.205 129.442 245.786C129.238 245.364 129.136 244.874 129.136 244.315C129.136 243.757 129.238 243.264 129.442 242.838C129.648 242.41 129.934 242.076 130.301 241.837C130.67 241.595 131.101 241.474 131.594 241.474C131.878 241.474 132.158 241.522 132.435 241.616C132.712 241.711 132.964 241.865 133.192 242.078C133.419 242.289 133.6 242.568 133.735 242.916C133.87 243.264 133.938 243.693 133.938 244.202V244.557H129.733V243.832H133.085C133.085 243.525 133.024 243.25 132.901 243.009C132.78 242.767 132.607 242.576 132.382 242.437C132.16 242.297 131.897 242.227 131.594 242.227C131.26 242.227 130.971 242.31 130.727 242.476C130.486 242.639 130.3 242.852 130.17 243.115C130.04 243.378 129.974 243.66 129.974 243.96V244.443C129.974 244.855 130.045 245.204 130.188 245.491C130.332 245.775 130.532 245.991 130.788 246.141C131.043 246.287 131.34 246.361 131.679 246.361C131.899 246.361 132.098 246.33 132.276 246.268C132.455 246.205 132.611 246.11 132.741 245.984C132.871 245.857 132.972 245.698 133.043 245.509L133.852 245.736C133.767 246.01 133.624 246.252 133.423 246.46C133.221 246.666 132.973 246.827 132.677 246.943C132.381 247.057 132.048 247.114 131.679 247.114ZM136.05 243.719V247H135.212V241.545H136.022V242.398H136.093C136.221 242.121 136.415 241.898 136.675 241.73C136.936 241.56 137.272 241.474 137.684 241.474C138.053 241.474 138.376 241.55 138.653 241.702C138.93 241.851 139.146 242.078 139.3 242.384C139.454 242.687 139.531 243.07 139.531 243.534V247H138.692V243.591C138.692 243.162 138.581 242.829 138.359 242.589C138.136 242.348 137.831 242.227 137.442 242.227C137.175 242.227 136.936 242.285 136.725 242.401C136.517 242.517 136.352 242.687 136.232 242.909C136.111 243.132 136.05 243.402 136.05 243.719ZM143.434 241.545V242.256H140.607V241.545H143.434ZM141.431 240.239H142.269V245.438C142.269 245.674 142.304 245.852 142.372 245.97C142.443 246.086 142.533 246.164 142.642 246.205C142.753 246.242 142.871 246.261 142.994 246.261C143.086 246.261 143.162 246.257 143.221 246.247C143.28 246.235 143.328 246.226 143.363 246.219L143.534 246.972C143.477 246.993 143.397 247.014 143.296 247.036C143.194 247.059 143.065 247.071 142.909 247.071C142.672 247.071 142.44 247.02 142.213 246.918C141.988 246.817 141.801 246.661 141.651 246.453C141.505 246.245 141.431 245.982 141.431 245.665V240.239Z" fill="#CFDEDB" fill-opacity="0.8"/>
<mask id="mask4_1_2" style="mask-type:alpha" maskUnits="userSpaceOnUse" x="49" y="234" width="18" height="18">
<rect x="49" y="234" width="18" height="18" fill="#D9D9D9"/>
</mask>
<g mask="url(#mask4_1_2)">
<path d="M56.8695 246.75H58.3364V243.75H61.2702V242.25H58.3364V239.25H56.8695V242.25H53.9357V243.75H56.8695V246.75ZM52.4688 249.75C52.0653 249.75 51.7199 249.603 51.4324 249.31C51.1454 249.016 51.0018 248.663 51.0018 248.25V237.75C51.0018 237.337 51.1454 236.984 51.4324 236.69C51.7199 236.397 52.0653 236.25 52.4688 236.25H62.7371C63.1405 236.25 63.486 236.397 63.7735 236.69C64.0605 236.984 64.204 237.337 64.204 237.75V248.25C64.204 248.663 64.0605 249.016 63.7735 249.31C63.486 249.603 63.1405 249.75 62.7371 249.75H52.4688ZM52.4688 248.25H62.7371V237.75H52.4688V248.25Z" fill="#CFDEDB"/>
</g>
</g>
</svg>
